<?xml version="1.0" standalone="no"?>
<!DOCTYPE svg PUBLIC "-//W3C//DTD SVG 1.1//EN" "http://www.w3.org/Graphics/SVG/1.1/DTD/svg11.dtd" >
<svg xmlns="http://www.w3.org/2000/svg">
<metadata></metadata>
<defs>
<font id="OblikSerifBoldRegular" horiz-adv-x="1585" >
<font-face units-per-em="2048" ascent="1536" descent="-512" />
<missing-glyph horiz-adv-x="616" />
<glyph horiz-adv-x="0" />
<glyph horiz-adv-x="2048" />
<glyph unicode=" "  horiz-adv-x="616" />
<glyph unicode="&#x09;" horiz-adv-x="616" />
<glyph unicode="&#xa0;" horiz-adv-x="616" />
<glyph unicode="!" horiz-adv-x="657" d="M195 1434h268l-31 -1086h-205zM201 0v258h256v-258h-256z" />
<glyph unicode="&#x22;" horiz-adv-x="808" d="M133 1434h180l-14 -439h-156zM496 1434h180l-14 -439h-156z" />
<glyph unicode="#" horiz-adv-x="1284" d="M82 428v182h211l31 219h-242v183h270l66 456h184l-67 -456h294l66 456h186l-65 -456h186v-183h-213l-33 -219h246v-182h-272l-64 -457h-190l69 457h-292l-68 -457h-186l67 457h-184zM479 610h291l33 219h-295z" />
<glyph unicode="$" horiz-adv-x="1114" d="M41 72v309q0 53 37.5 91t89.5 38q53 0 90 -38t37 -91v-117q114 -29 176 -33v410q-100 35 -152 64q-110 56 -170.5 149.5t-60.5 208.5q0 84 40 160.5t105 130.5q91 75 238 96v104q0 31 21.5 53.5t52.5 22.5t53.5 -22.5t22.5 -53.5v-100q162 -7 391 -74v-303 q0 -54 -37 -90.5t-90 -36.5q-54 0 -90.5 36.5t-36.5 90.5v105q-86 18 -137 20v-321q25 -10 76.5 -27.5t84.5 -29.5t75.5 -33.5t74.5 -45.5q80 -58 120 -140.5t40 -174.5q0 -98 -39 -181.5t-111 -142.5q-123 -101 -321 -122v-107q0 -31 -22.5 -52.5t-53.5 -21.5t-52.5 20.5 t-21.5 51.5v102q-24 1 -48 3t-52 7t-46 7.5t-50 11t-44.5 11t-50 13.5t-44.5 13t-49.5 15t-45.5 14zM360 1067q0 -74 111 -129v252q-49 -15 -80 -46t-31 -77zM621 240q200 37 200 174q0 22 -6.5 42t-15.5 34.5t-26 28t-31.5 22.5t-38.5 19t-39.5 15.5t-42.5 14.5v-350z" />
<glyph unicode="%" horiz-adv-x="1646" d="M133 1090q0 167 81 266.5t218 99.5t218 -100.5t81 -265.5t-81 -265t-218 -100t-218 100t-81 265zM289 1087q0 -93 37.5 -159t105.5 -66t105.5 66t37.5 159t-37.5 159.5t-105.5 66.5t-105.5 -66.5t-37.5 -159.5zM336 -27l799 1493h147l-793 -1493h-153zM915 342 q0 167 81 267t218 100t218 -101t81 -266t-81 -265t-218 -100t-218 100t-81 265zM1071 340q0 -93 37.5 -159t105.5 -66t106 66t38 159t-38 159t-106 66t-105.5 -66t-37.5 -159z" />
<glyph unicode="&#x26;" horiz-adv-x="1368" d="M92 420q0 133 71.5 238t190.5 178q0 4 -8 12q-106 136 -104 266q6 148 92 234q99 108 282 108q168 0 258 -104q40 -47 63.5 -111t20.5 -133q-2 -60 -18.5 -106.5t-52.5 -86.5t-66.5 -64.5t-89.5 -66.5l199 -243q18 52 18 143h238q-10 -201 -74 -362l266 -324h-327 l-99 115q-169 -136 -372 -136q-99 0 -187.5 31t-155.5 87t-106 140.5t-39 184.5zM328 430q-4 -95 55.5 -156t157.5 -63q73 -3 146 18t116 66l-297 362q-37 -23 -54.5 -34.5t-45 -34.5t-41 -43t-24.5 -50t-13 -65zM496 1114q0 -12 2.5 -23.5t9 -24t11 -21.5t15.5 -23t16 -20 t18 -20.5t16 -18.5q79 44 102 67q37 35 37 78q3 49 -25.5 88.5t-81.5 42.5q-56 1 -88 -37t-32 -88z" />
<glyph unicode="'" horiz-adv-x="446" d="M133 1434h180l-14 -439h-156z" />
<glyph unicode="(" horiz-adv-x="751" d="M135 483q3 163 37 306t101.5 270.5t181.5 224.5t266 152v-172q-114 -76 -193.5 -213t-112.5 -280.5t-32 -287.5q0 -113 18.5 -223.5t56.5 -219t105.5 -201.5t157.5 -154v-181q-154 57 -270.5 157.5t-186 230t-102 278t-27.5 313.5z" />
<glyph unicode=")" horiz-adv-x="751" d="M31 -315q90 61 157.5 154t105.5 201.5t56.5 219t18.5 223.5q1 144 -32 287.5t-112.5 280.5t-193.5 213v172q152 -55 265.5 -152t181.5 -224.5t101.5 -270.5t36.5 -306q5 -165 -27.5 -313.5t-101.5 -278t-185.5 -230t-270.5 -157.5v181z" />
<glyph unicode="*" horiz-adv-x="1038" d="M133 989l264 109l-264 110l84 154l242 -164l-27 305h174l-26 -305l239 164l86 -154l-262 -110l262 -109l-86 -153l-239 161l24 -301h-174l29 301l-242 -161z" />
<glyph unicode="+" horiz-adv-x="1222" d="M133 616v187h387v387h182v-387h388v-187h-388v-385h-182v385h-387z" />
<glyph unicode="," horiz-adv-x="708" d="M92 -332l162 604h281l-267 -604h-176z" />
<glyph unicode="-" horiz-adv-x="985" d="M133 428v219h719v-219h-719z" />
<glyph unicode="." horiz-adv-x="663" d="M195 0v272h274v-272h-274z" />
<glyph unicode="/" horiz-adv-x="604" d="M10 -27l428 1491h156l-432 -1491h-152z" />
<glyph unicode="0" horiz-adv-x="1423" d="M102 717q0 336 166.5 537.5t442.5 201.5t443 -201.5t167 -537.5t-167 -538t-443 -202t-442.5 202t-166.5 538zM369 715q0 -233 92.5 -370.5t247.5 -137.5q157 0 249.5 137.5t92.5 370.5t-92.5 371.5t-249.5 138.5q-156 0 -248 -138t-92 -372z" />
<glyph unicode="1" horiz-adv-x="978" d="M31 1161l237 201q99 86 211 86q90 0 133 -52t43 -143v-1011h80q50 0 85.5 -34.5t35.5 -86.5t-35.5 -86.5t-85.5 -34.5h-422q-51 0 -84.5 34.5t-33.5 86.5t33.5 86.5t84.5 34.5h82v938l-213 -189z" />
<glyph unicode="2" horiz-adv-x="1046" d="M31 0v168l557 700q67 90 67 162q3 92 -69.5 146.5t-165.5 54.5q-182 0 -277 -86h-30v235q168 76 342 76q109 -2 205.5 -38.5t164.5 -108.5q50 -54 74.5 -128t24.5 -151q0 -80 -29.5 -159t-77.5 -134l-442 -512h307v78q0 50 34.5 85.5t86.5 35.5t86.5 -35.5t34.5 -85.5 v-303h-893z" />
<glyph unicode="3" horiz-adv-x="1048" d="M31 51v238h32q73 -41 164 -66t174 -24q95 -2 175.5 62.5t80.5 160.5q0 63 -29.5 108.5t-80 69.5t-105.5 34.5t-118 10.5h-109v223h74q45 0 78.5 2t78 12t73 28t49 52t20.5 82q0 58 -35.5 103t-86 66.5t-104.5 21.5q-172 0 -272 -70h-33v230q166 61 314 61q71 0 139 -15 t130.5 -46.5t110 -76.5t75.5 -109.5t28 -141.5q0 -93 -54.5 -180t-144.5 -115q111 -34 191 -131.5t80 -218.5q0 -88 -30 -162t-81.5 -125.5t-122 -87.5t-151 -53t-168.5 -17q-158 0 -342 74z" />
<glyph unicode="4" horiz-adv-x="1271" d="M59 449q-37 71 2 139l508 764q63 96 205 96q82 0 128 -59t46 -142v-637h78q48 0 83.5 -34t35.5 -84q0 -49 -35.5 -83t-83.5 -34h-78v-133h80q50 0 85.5 -34.5t35.5 -86.5t-35.5 -86.5t-85.5 -34.5h-422q-51 0 -85 34.5t-34 86.5t34 86.5t85 34.5h82v133h-495 q-42 0 -78.5 20t-55.5 54zM334 610h354v531z" />
<glyph unicode="5" horiz-adv-x="1054" d="M82 49v250h33q129 -90 319 -90q124 0 200.5 72.5t76.5 199.5q0 69 -31.5 120.5t-85.5 79.5t-116 41t-132 13h-219v699h803v-226h-543v-252q213 0 344 -67q114 -61 178 -172t64 -246q0 -151 -83 -265.5t-214 -171.5t-285 -57q-117 0 -309 72z" />
<glyph unicode="6" horiz-adv-x="1220" d="M104 676q3 285 134 498q85 137 212.5 209t288.5 73q90 0 163 -20.5t161 -65.5v-229h-33q-58 42 -137.5 66t-155.5 24q-122 0 -215 -79.5t-129 -203.5q41 40 115 61t156 21q88 0 175 -36.5t152 -98.5q72 -75 110 -174.5t38 -210.5q0 -229 -148 -383q-68 -73 -164.5 -111.5 t-203.5 -38.5q-128 0 -239 62.5t-179 177.5q-108 179 -101 459zM369 492q0 -122 80.5 -207.5t201.5 -81.5q109 17 165 99t56 204q0 79 -28 146.5t-90 111t-148 39.5q-116 -6 -176.5 -92.5t-60.5 -218.5z" />
<glyph unicode="7" horiz-adv-x="897" d="M10 1130v304h688q132 0 174 -91q12 -25 12.5 -52.5t-6 -50.5t-20.5 -58l-496 -1182h-282l516 1208h-344v-78q0 -50 -34.5 -85t-86.5 -35t-86.5 35t-34.5 85z" />
<glyph unicode="8" horiz-adv-x="1284" d="M102 424q0 123 70.5 218.5t192.5 127.5q-61 16 -107 63.5t-67.5 106t-20.5 115.5q1 96 40.5 173.5t105 126.5t149.5 75t178 26q202 0 336 -108.5t137 -292.5q2 -99 -48 -178t-144 -107q118 -32 186.5 -125.5t71.5 -216.5q-7 -111 -53.5 -198.5t-120.5 -142t-165.5 -82.5 t-193.5 -28q-103 0 -200 30t-174.5 85t-125 141.5t-47.5 190.5zM367 428q0 -109 77 -170t197 -61t198.5 61t78.5 170q0 103 -80 168.5t-197 65.5t-195.5 -65.5t-78.5 -168.5zM428 1042q0 -86 62 -140t153 -54t153 54t62 140q0 92 -61 143.5t-154 51.5t-154 -51.5t-61 -143.5 z" />
<glyph unicode="9" horiz-adv-x="1220" d="M82 924q0 230 147 383q68 72 164.5 110.5t204.5 38.5q128 0 239 -62t179 -177q107 -177 100 -459q-3 -287 -133 -498q-85 -137 -213 -209.5t-289 -73.5q-90 0 -162.5 20.5t-160.5 65.5v230h32q58 -42 137.5 -66t155.5 -24q123 0 215.5 79t128.5 203q-41 -40 -114.5 -61 t-155.5 -21q-88 0 -175 37t-153 99q-71 74 -109 174t-38 211zM348 928q0 -79 28 -146.5t90 -111t148 -39.5q116 6 177 92.5t61 218.5q0 122 -81 207.5t-202 81.5q-109 -17 -165 -99t-56 -204z" />
<glyph unicode=":" horiz-adv-x="663" d="M195 0v272h274v-272h-274zM195 799v274h274v-274h-274z" />
<glyph unicode=";" horiz-adv-x="688" d="M72 -332l161 604h281l-266 -604h-176zM240 799v274h274v-274h-274z" />
<glyph unicode="&#x3c;" horiz-adv-x="1165" d="M133 623v186l899 410v-205l-657 -295l657 -297v-205z" />
<glyph unicode="=" horiz-adv-x="1224" d="M133 438v185h959v-185h-959zM133 811v184h959v-184h-959z" />
<glyph unicode="&#x3e;" horiz-adv-x="1165" d="M133 217v205l658 297l-658 295v205l899 -410v-186z" />
<glyph unicode="?" horiz-adv-x="1017" d="M113 1114v234q187 108 348 108q167 0 295 -94q139 -114 139 -283q0 -95 -43.5 -178t-118.5 -133q-25 -19 -96 -55t-96 -60q-21 -19 -32 -47.5t-13 -50.5t-2 -57v-156h-240v182q7 139 53 217q11 19 22.5 34.5t29 30.5t25.5 23t33.5 23t30 18t37.5 20.5t35 18.5 q115 70 115 166q0 49 -33.5 82.5t-77 46.5t-90.5 13q-76 0 -150.5 -27t-129.5 -76h-41zM246 0v256h256v-256h-256z" />
<glyph unicode="@" horiz-adv-x="2134" d="M133 471q0 198 69.5 373.5t193 305.5t305.5 206t395 76q212 0 385 -75.5t286 -206.5t173.5 -305t60.5 -374q0 -252 -125 -471h-657v61q-96 -86 -248 -86q-145 0 -236.5 83t-91.5 227q6 115 73 194.5t193 100.5l310 51q-3 33 -27.5 58t-59 38t-67 19t-59.5 6 q-60 0 -128.5 -15.5t-119.5 -42.5h-29v213q157 45 281 45q66 0 124.5 -9.5t114 -33t95.5 -59.5t64 -91.5t24 -125.5v-516h350q80 160 80 354q0 172 -51.5 321t-147 261t-243 176.5t-328.5 64.5q-182 0 -337.5 -65t-261.5 -176t-165.5 -261.5t-59.5 -320.5q0 -169 57 -317 t161 -258t260.5 -175t345.5 -69q170 -6 321 49l60 -129q-164 -65 -377 -59q-222 4 -405 80.5t-304.5 205.5t-187.5 301.5t-66 370.5zM870 299q-1 -62 37.5 -89.5t102.5 -27.5q98 0 207 64v205q-36 -6 -117.5 -19t-122.5 -20q-51 -10 -79 -35.5t-28 -77.5z" />
<glyph unicode="A" d="M-20 129q0 54 38.5 90.5t92.5 36.5h90l399 1067q24 62 75.5 94.5t115.5 32.5q65 0 114.5 -32.5t73.5 -94.5l405 -1067h95q53 0 90 -36.5t37 -90.5q0 -51 -37 -89.5t-88 -39.5h-416q-51 0 -89 38.5t-38 90.5q0 53 37.5 90t89.5 37h29l-39 104h-541l-41 -104h29 q52 0 89.5 -37t37.5 -90q0 -52 -38 -90.5t-89 -38.5h-398q-51 0 -87.5 39t-36.5 90zM600 602h369l-185 512z" />
<glyph unicode="B" horiz-adv-x="1515" d="M102 127q0 54 36.5 90.5t90.5 36.5h86v385h-98q-46 0 -80.5 34.5t-34.5 80.5q0 49 34 81.5t81 32.5h98v287q0 116 81 197.5t198 81.5h151h44.5h48t44.5 -1t48 -3t44 -5t47 -8.5t42 -12.5t44.5 -17t39.5 -23q84 -55 132 -136t48 -175q0 -102 -47.5 -181t-146.5 -104 q260 -68 260 -334q0 -163 -109 -284q-80 -88 -191 -119t-257 -31h-607q-54 0 -90.5 36.5t-36.5 90.5zM590 246h250q51 0 86 3.5t72 15.5t59 34t36 60t15 92q-1 49 -18 84.5t-42.5 55t-67 31t-78.5 14.5t-89 3h-223v-393zM590 868h196q39 0 60 1t57 5t57 14t43.5 27t33 45.5 t10.5 67.5q0 94 -61 127t-193 33h-140q-28 0 -45.5 -20.5t-17.5 -51.5v-248z" />
<glyph unicode="C" horiz-adv-x="1247" d="M102 725q0 141 46.5 276t138.5 240q191 215 516 215q175 -3 377 -74v-385q0 -52 -37 -89.5t-90 -37.5q-52 0 -88.5 37.5t-36.5 89.5v195q-64 12 -125 12q-193 3 -309 -133q-54 -67 -80.5 -161.5t-26.5 -192.5q0 -99 27.5 -196t83.5 -163q117 -132 309 -129q83 0 177.5 23 t164.5 61h37v-260q-202 -73 -377 -76q-303 0 -483 177q-224 213 -224 571z" />
<glyph unicode="D" horiz-adv-x="1605" d="M113 127q0 54 38.5 90.5t92.5 36.5h82v903q0 114 81.5 195.5t196.5 81.5h205q340 -3 517 -184t177 -521q0 -344 -172 -536.5t-502 -192.5h-585q-54 0 -92.5 36.5t-38.5 90.5zM602 252h193q86 0 150 11.5t111.5 37t78.5 62t50 90.5t26.5 117.5t7.5 148.5q0 121 -18.5 204 t-63 143t-122.5 88t-194 28h-153q-9 0 -17.5 -2.5t-16 -6.5t-13.5 -10t-10 -13t-6.5 -15t-2.5 -17v-866z" />
<glyph unicode="E" horiz-adv-x="1386" d="M123 127q0 54 36.5 90.5t90.5 36.5h82v381h-92q-47 0 -82 36t-35 83q0 49 35 84.5t82 35.5h92v283q0 114 80.5 195.5t195.5 81.5h717v-330q0 -54 -37.5 -90.5t-91.5 -36.5t-90.5 36.5t-36.5 90.5v80h-395q-26 0 -46 -19t-20 -45v-246h459v-239h-459v-385h461v129 q0 54 36.5 90.5t90.5 36.5t91.5 -36.5t37.5 -90.5v-379h-1075q-54 0 -90.5 36.5t-36.5 90.5z" />
<glyph unicode="F" horiz-adv-x="1331" d="M123 127q0 54 36.5 90.5t90.5 36.5h84v371h-88q-51 0 -87 37t-36 88t36 86.5t87 35.5h88v285q0 114 81.5 195.5t196.5 81.5h719v-330q0 -54 -37.5 -90.5t-91.5 -36.5t-90.5 36.5t-36.5 90.5v80h-399q-26 0 -46 -19t-20 -45v-248h463v-247h-463v-371h84q53 0 91 -37 t38 -90t-38 -90t-91 -37h-444q-54 0 -90.5 36.5t-36.5 90.5z" />
<glyph unicode="G" horiz-adv-x="1456" d="M102 717q0 266 140 465q94 137 239 204.5t326 69.5q185 0 434 -82v-321q0 -52 -37 -89.5t-88 -37.5q-53 0 -91 37.5t-38 89.5v137q-91 16 -168 16q-105 0 -195.5 -41t-148.5 -123q-43 -62 -65.5 -151.5t-22.5 -175.5q0 -231 120.5 -360.5t350.5 -129.5q86 0 156 21v276 h-256v246h532q51 0 88 -36t37 -87t-37 -87t-88 -36h-20v-475q-207 -67 -451 -70q-347 0 -540 222q-89 102 -133 236.5t-44 281.5z" />
<glyph unicode="H" horiz-adv-x="1822" d="M123 127q0 54 36.5 90.5t90.5 36.5h86v924h-86q-54 0 -90.5 36.5t-36.5 90.5q0 53 37 91t90 38h444q54 0 92.5 -38t38.5 -91q0 -54 -38.5 -90.5t-92.5 -36.5h-82v-304h602v304h-81q-53 0 -90 36.5t-37 90.5q0 53 37.5 91t89.5 38h438q53 0 91 -38t38 -91t-38 -90t-91 -37 h-84v-924h84q53 0 91 -37t38 -90t-38 -90t-91 -37h-438q-53 0 -90 36.5t-37 90.5t37 90.5t90 36.5h81v371h-602v-371h82q54 0 92.5 -36.5t38.5 -90.5t-38.5 -90.5t-92.5 -36.5h-444q-54 0 -90.5 36.5t-36.5 90.5z" />
<glyph unicode="I" horiz-adv-x="948" d="M123 127q0 54 36.5 90.5t90.5 36.5h86v924h-86q-54 0 -90.5 36.5t-36.5 90.5q0 53 37 91t90 38h446q52 0 90.5 -38t38.5 -91t-38 -90t-91 -37h-84v-924h84q53 0 91 -37t38 -90t-38 -90t-91 -37h-446q-54 -1 -90.5 36t-36.5 91z" />
<glyph unicode="J" horiz-adv-x="808" d="M61 0h66q49 1 81.5 15t49.5 42.5t23 62.5t6 85v973h-82q-53 0 -90 36.5t-37 88.5q0 54 37.5 92.5t89.5 38.5h358v-1176q0 -246 -101 -377t-327 -131h-74v250z" />
<glyph unicode="K" horiz-adv-x="1552" d="M123 127q0 54 37.5 90.5t91.5 36.5h82v924h-82q-54 0 -91.5 36.5t-37.5 90.5q0 53 37.5 91t91.5 38h397q53 0 90 -38t37 -91q0 -54 -36.5 -90.5t-90.5 -36.5h-39v-310l310 326q-27 15 -44.5 46.5t-17.5 64.5q0 53 37.5 91t89.5 38h406q52 0 89.5 -38t37.5 -91 q0 -54 -37 -90.5t-90 -36.5h-142l-334 -334l461 -590h131q54 0 90.5 -36.5t36.5 -90.5t-36.5 -90.5t-90.5 -36.5h-479q-54 0 -90.5 36.5t-36.5 90.5t36.5 90.5t90.5 36.5h4l-305 403l-117 -120v-283h54q53 0 90 -36.5t37 -90.5t-37 -90.5t-90 -36.5h-412q-54 0 -91.5 36.5 t-37.5 90.5z" />
<glyph unicode="L" horiz-adv-x="1185" d="M113 1307q0 51 38.5 89t90.5 38h446q52 0 89.5 -38t37.5 -89q0 -53 -37.5 -91t-89.5 -38h-86v-863q0 -26 19 -45.5t45 -19.5h264v129q0 53 36.5 90t90.5 37q53 0 91 -37.5t38 -89.5v-379h-578q-117 0 -199.5 82.5t-82.5 198.5v897h-84q-52 0 -90.5 38t-38.5 91z" />
<glyph unicode="M" horiz-adv-x="2052" d="M82 129q0 53 37.5 90t89.5 37h82l53 1010q2 74 54 128.5t126 55.5q70 1 125.5 -40.5t77.5 -106.5l303 -918l293 918q46 145 193 145q82 0 135 -50t59 -134l53 -1008h76q54 0 92.5 -36.5t38.5 -90.5q0 -53 -38.5 -91t-92.5 -38h-356q-51 0 -89 38.5t-38 90.5q0 53 37.5 90 t89.5 37h12l-31 709l-307 -965h-270l-309 946l-37 -690h12q53 0 90 -36.5t37 -90.5q0 -53 -37.5 -91t-89.5 -38h-344q-51 0 -89 38.5t-38 90.5z" />
<glyph unicode="N" horiz-adv-x="1822" d="M113 129q0 54 37 90.5t90 36.5h82v1006q0 75 45.5 131t119.5 57q122 0 201 -121l559 -876v727h-84q-54 0 -90.5 36.5t-36.5 90.5q0 53 36.5 90t90.5 37h416q54 0 92.5 -37.5t38.5 -89.5q0 -54 -38.5 -90.5t-92.5 -36.5h-82v-1180h-264l-662 1038v-782h82q54 0 90.5 -36.5 t36.5 -90.5q0 -53 -37 -91t-90 -38h-413q-52 0 -89.5 38t-37.5 91z" />
<glyph unicode="O" horiz-adv-x="1562" d="M102 717q0 333 189.5 536t488.5 203q197 0 351 -90.5t241.5 -259t87.5 -389.5q0 -166 -51 -305t-141 -234t-215.5 -148t-272.5 -53t-272.5 53t-215 148.5t-140 234t-50.5 304.5zM387 717q0 -225 106.5 -356.5t286.5 -131.5q181 0 288.5 131.5t107.5 356.5q0 207 -110 348 t-286 141q-180 0 -286.5 -132t-106.5 -357z" />
<glyph unicode="P" horiz-adv-x="1396" d="M123 127q0 54 38.5 90.5t92.5 36.5h82v264h-90q-50 0 -86.5 35.5t-36.5 87.5q0 51 36.5 87t86.5 36h90v391q0 116 81.5 197.5t196.5 81.5h195q11 0 58 -1.5t62 -2t53.5 -4t61 -9t54 -15t59.5 -22.5q107 -52 163 -160.5t56 -236.5q0 -121 -46 -220t-144 -159 q-138 -86 -375 -86h-199v-264h84q54 0 89.5 -37.5t35.5 -95.5q0 -50 -36 -85.5t-89 -35.5h-442q-54 0 -92.5 36.5t-38.5 90.5zM612 764h213q53 0 99 11t85.5 35t62 66.5t22.5 100.5q0 55 -12.5 93.5t-34 62t-58.5 36.5t-76.5 17t-97.5 4h-137q-26 0 -46 -21t-20 -47v-358z " />
<glyph unicode="Q" horiz-adv-x="1562" d="M102 717q0 333 189.5 536t488.5 203q197 0 351 -90.5t241.5 -259t87.5 -389.5q0 -249 -111 -430.5t-302 -259.5q68 -103 104 -105q10 0 21 4t23.5 12t22.5 15.5t23.5 20t20 19l19 19l13.5 13.5l144 -168q-85 -81 -122 -107q-79 -55 -161 -55q-57 -1 -109.5 22.5t-96 68.5 t-75.5 89t-65 102h-29q-147 0 -272.5 53t-215 148.5t-140 234t-50.5 304.5zM387 717q0 -225 106.5 -356.5t286.5 -131.5q181 0 288.5 131.5t107.5 356.5q0 207 -110 348t-286 141q-180 0 -286.5 -132t-106.5 -357z" />
<glyph unicode="R" horiz-adv-x="1519" d="M123 641q0 49 36.5 86t86.5 37h88v391q0 116 82.5 197.5t199.5 81.5h189q11 0 58.5 -1.5t63 -2t54.5 -4t61 -9t53.5 -15t59.5 -22.5q106 -52 162.5 -161.5t56.5 -235.5q-2 -121 -47.5 -220t-140.5 -159q-59 -34 -99 -45l220 -305h125q54 0 91.5 -36.5t37.5 -90.5 t-37.5 -90.5t-91.5 -36.5h-463q-52 0 -89.5 37t-37.5 90t37.5 90t89.5 37h8l-184 264h-183v-264h33q53 0 91 -37t38 -90t-38 -90t-91 -37h-393q-53 0 -89 36.5t-36 90.5t36 90.5t89 36.5h84v264h-88q-50 0 -86.5 35.5t-36.5 87.5zM610 764h215q52 0 97.5 11t84.5 34t62 65 t23 99q0 121 -65 169t-214 48h-139q-26 0 -45 -20.5t-19 -47.5v-358z" />
<glyph unicode="S" horiz-adv-x="1183" d="M61 72v309q0 53 37.5 91t89.5 38q53 0 90 -38t37 -91v-117q132 -35 217 -35q48 0 95.5 7.5t99 26t83.5 57.5t32 94q0 29 -11 53.5t-27 40.5t-42.5 31.5t-48.5 24.5t-54 20q-31 11 -100 34t-121 43t-98 44q-110 56 -170.5 149.5t-60.5 208.5q0 84 40 160.5t105 130.5 q121 102 332 102q181 0 446 -76v-303q0 -54 -37 -90.5t-90 -36.5q-54 0 -90.5 36.5t-36.5 90.5v105q-99 22 -174 22q-49 1 -96.5 -9.5t-87 -43.5t-39.5 -84q0 -18 5 -34t17.5 -30t23 -25t31.5 -22.5t33.5 -18.5t39 -17t36.5 -13.5t37.5 -12.5t32.5 -11q23 -9 77.5 -27.5 t86 -30.5t75 -33.5t76.5 -46.5q80 -58 120 -140.5t40 -174.5q0 -200 -149 -324q-156 -129 -439 -129q-75 0 -164.5 16.5t-140 31t-158.5 47.5z" />
<glyph unicode="T" horiz-adv-x="1103" d="M0 1053v381h1104v-383q0 -54 -36 -89.5t-89 -35.5q-54 0 -90.5 35.5t-36.5 89.5v133h-162v-930h84q53 0 91 -37t38 -90t-38 -90t-91 -37h-446q-52 0 -87.5 36.5t-35.5 90.5t35.5 90.5t87.5 36.5h86v930h-162v-131q0 -54 -35.5 -90.5t-87.5 -36.5q-54 0 -91.5 36.5 t-37.5 90.5z" />
<glyph unicode="U" horiz-adv-x="1705" d="M82 1309q0 53 36.5 89t90.5 36h442q55 -2 93 -37.5t38 -87.5q0 -54 -38.5 -92.5t-92.5 -38.5h-82v-641q0 -144 54 -220q73 -90 241 -90q165 0 246 107q53 76 53 201v643h-90q-54 0 -90.5 38.5t-36.5 92.5q0 53 36.5 89t90.5 36h422q53 0 91 -36.5t38 -88.5 q0 -54 -38 -92.5t-91 -38.5h-82v-557q0 -152 -20 -253t-88 -192q-77 -101 -198.5 -150t-254.5 -49q-147 0 -273 59.5t-198 170.5q-54 83 -71 183t-17 231v557h-84q-54 0 -90.5 38.5t-36.5 92.5z" />
<glyph unicode="V" horiz-adv-x="1466" d="M-41 1307q0 51 38.5 89t90.5 38h414q52 0 89.5 -38t37.5 -89q0 -53 -37.5 -91t-89.5 -38h-35l276 -832l281 832h-37q-52 0 -89.5 38t-37.5 91q0 51 37.5 89t89.5 38h391q52 0 90.5 -38t38.5 -89q0 -53 -38.5 -91t-90.5 -38h-88l-370 -1061q-22 -60 -70 -96t-111 -37 q-65 0 -117.5 36t-74.5 97l-371 1061h-88q-52 0 -90.5 38t-38.5 91z" />
<glyph unicode="W" horiz-adv-x="2043" d="M-20 1305q0 54 36 91.5t90 37.5h410q51 0 88 -37.5t37 -91.5q0 -52 -37 -89.5t-88 -37.5h-43l180 -725l232 981h280l240 -992l184 736h-61q-51 0 -89 37.5t-38 89.5q0 53 37.5 91t89.5 38h407q53 0 91 -37.5t38 -91.5q0 -52 -38 -89.5t-91 -37.5h-88l-272 -1055 q-15 -62 -65.5 -103t-114.5 -38q-64 1 -112.5 42.5t-63.5 104.5l-201 823l-189 -829q-14 -60 -61.5 -100t-110.5 -41q-68 -3 -120 39t-70 108l-274 1049h-87q-54 0 -90 37t-36 90z" />
<glyph unicode="X" horiz-adv-x="1492" d="M-20 127q0 53 38 90t91 37h129l350 524l-271 400h-106q-52 0 -87.5 36.5t-35.5 90.5q0 53 35.5 91t87.5 38h369q53 0 90 -38t37 -91q0 -39 -21.5 -71t-54.5 -46l114 -178l111 178q-33 14 -53.5 46t-20.5 71q0 53 37 91t88 38h336q51 0 88 -38t37 -91t-37 -90t-88 -37 h-106l-250 -373l370 -551h129q54 0 90.5 -36.5t36.5 -90.5t-36.5 -90.5t-90.5 -36.5h-460q-53 0 -89 36.5t-36 90.5t36 90.5t89 36.5h14l-209 324l-211 -324h12q54 0 92 -36.5t38 -90.5t-38 -90.5t-92 -36.5h-423q-53 0 -91 37t-38 90z" />
<glyph unicode="Y" horiz-adv-x="1335" d="M-41 1307q0 53 35.5 89.5t89.5 37.5h408q52 0 89 -38t37 -91t-35.5 -90t-88.5 -37l180 -369l182 369h-14q-52 0 -88.5 37t-36.5 90t37.5 91t89.5 38h407q54 -1 89.5 -37.5t35.5 -89.5t-37.5 -91t-89.5 -38h-119l-329 -629v-295h86q52 0 89.5 -37t37.5 -90t-37.5 -90 t-89.5 -37h-449q-53 0 -90 36.5t-37 90.5t37 90.5t90 36.5h86v295l-331 629h-107q-52 0 -89.5 38t-37.5 91z" />
<glyph unicode="Z" horiz-adv-x="1153" d="M51 0v176l707 1008h-404v-133q0 -53 -37.5 -89t-89.5 -36q-53 0 -90 36t-37 89v383h756q66 0 125 -28.5t84 -84.5q40 -93 -16 -199l-615 -872h395v131q0 53 36.5 90t90.5 37q52 0 88.5 -37t36.5 -90v-381h-1030z" />
<glyph unicode="[" horiz-adv-x="743" d="M195 -492v1926h518v-213h-273v-1500h273v-213h-518z" />
<glyph unicode="\" horiz-adv-x="604" d="M10 1464h156l428 -1491h-152z" />
<glyph unicode="]" horiz-adv-x="743" d="M31 -279h272v1500h-272v213h518v-1926h-518v213z" />
<glyph unicode="^" horiz-adv-x="1128" d="M133 754l338 741h186l338 -741h-204l-228 499l-225 -499h-205z" />
<glyph unicode="_" horiz-adv-x="1288" d="M-10 -276h1308v-185h-1308v185z" />
<glyph unicode="`" horiz-adv-x="651" d="M133 1458h207l178 -307h-158z" />
<glyph unicode="a" horiz-adv-x="1263" d="M84 328q-2 95 41.5 171.5t113 120.5t154.5 56l352 51q-4 48 -51 82t-98 46.5t-94 12.5q-70 0 -148 -17t-137 -46h-29v237q190 54 318 54q77 0 146 -11.5t133.5 -38.5t111 -68t74.5 -104t28 -141v-504h78q46 0 80.5 -34t34.5 -80q0 -49 -34 -82t-81 -33h-327v98 q-56 -59 -133 -91t-156 -32q-160 0 -266.5 98.5t-110.5 254.5zM346 342q0 -70 45.5 -103.5t116.5 -33.5q108 0 231 74v241q-38 -7 -128.5 -20t-139.5 -23q-125 -24 -125 -135z" />
<glyph unicode="b" horiz-adv-x="1298" d="M61 1386q0 46 35 80.5t84 34.5h332v-459q85 54 207 54q112 0 209 -43t166 -123q105 -135 112 -377q0 -205 -80 -346q-134 -223 -442 -230h-174q-107 0 -182.5 76.5t-75.5 184.5v1034h-72q-50 0 -84.5 32.5t-34.5 81.5zM512 268q0 -25 18 -42t43 -17h86q140 0 205 65 q74 76 74 279q4 130 -47 213q-57 91 -197 98q-69 0 -182 -26v-570z" />
<glyph unicode="c" horiz-adv-x="1026" d="M92 537q0 244 142.5 401.5t377.5 157.5q152 0 330 -72v-291q0 -47 -34.5 -82t-80.5 -35q-49 0 -81.5 34.5t-32.5 82.5v127q-29 4 -84 4q-141 0 -205 -88t-64 -241q0 -140 70 -233t195 -93q177 0 288 61h31v-221q-148 -72 -323 -72q-148 0 -269 72.5t-190.5 201 t-69.5 286.5z" />
<glyph unicode="d" horiz-adv-x="1232" d="M92 553q7 238 115 377q69 80 166 123t209 43q121 0 206 -54v230h-71q-50 0 -84.5 32.5t-34.5 81.5q0 46 35 80.5t84 34.5h332v-1263q0 -108 -75.5 -184.5t-182.5 -76.5h-175q-308 7 -442 230q-82 145 -82 346zM362 553q0 -203 74 -279q65 -65 205 -65h86q25 0 43 17 t18 42v570q-113 26 -182 26q-139 -7 -196 -98q-52 -85 -48 -213z" />
<glyph unicode="e" horiz-adv-x="1157" d="M92 530q7 225 119 381q69 90 168 137.5t215 47.5q148 0 259 -69t167 -202q36 -90 46.5 -182.5t6.5 -208.5h-702q13 -81 64.5 -136.5t119.5 -78t147 -20.5q176 4 283 67h33v-243q-154 -46 -336 -46q-267 0 -426 144q-164 149 -164 409zM373 649h436q-9 104 -62 162 t-149 59q-97 0 -156.5 -62t-68.5 -159z" />
<glyph unicode="f" horiz-adv-x="823" d="M82 119q0 44 34.5 78t80.5 34h77v617h-79q-45 0 -79 34t-34 79q0 46 34 79t79 33h79v31q0 199 90 298t281 99q29 0 59 -4t49.5 -8.5t55.5 -13.5t55 -13v-229h-35q-75 42 -157 39q-58 0 -97.5 -34t-39.5 -99v-66h272v-225h-272v-617h75q46 0 80.5 -34t34.5 -78 q0 -49 -34.5 -84t-80.5 -35h-413q-46 0 -80.5 35t-34.5 84z" />
<glyph unicode="g" horiz-adv-x="1241" d="M92 518q0 208 82 348q69 116 186.5 172t266.5 58h166q107 0 185.5 -77.5t78.5 -184.5v-781q0 -281 -138 -412t-413 -133q-131 0 -316 68v225h33q114 -56 285 -63q121 0 205 64t84 165v62q-88 -52 -207 -52q-109 0 -209.5 42t-173.5 124q-115 146 -115 375zM360 518 q0 -141 54 -219q60 -96 194 -96q98 0 189 24v574q0 27 -18.5 45t-43.5 18h-92q-133 0 -205 -69q-32 -32 -50.5 -84.5t-22.5 -92.5t-5 -100z" />
<glyph unicode="h" horiz-adv-x="1486" d="M82 119q0 44 35 78t82 34h73v1037h-73q-47 0 -82 34t-35 80q0 49 34.5 84t82.5 35h333v-495q162 90 310 90q163 0 271 -112.5t108 -285.5v-467h77q47 0 82 -34t35 -78q0 -49 -34.5 -84t-82.5 -35h-337v676q0 83 -40 134.5t-122 51.5q-63 0 -137.5 -24t-129.5 -60v-547h46 q46 0 80 -34t34 -78q0 -49 -34 -84t-80 -35h-379q-48 0 -82.5 35t-34.5 84z" />
<glyph unicode="i" horiz-adv-x="806" d="M82 115q0 46 35 80t84 34h78v611h-78q-50 0 -84.5 34.5t-34.5 83.5q0 46 35 80.5t84 34.5h338v-844h77q49 0 84 -34t35 -80t-35 -80.5t-84 -34.5h-415q-49 0 -84 34.5t-35 80.5zM276 1178v256h263v-256h-263z" />
<glyph unicode="j" horiz-adv-x="600" d="M-61 -260q117 0 167 46t50 161v893h-78q-50 0 -84.5 34.5t-34.5 83.5q0 46 35 80.5t84 34.5h338v-1083q0 -251 -116 -366.5t-361 -115.5v232zM152 1178v256h262v-256h-262z" />
<glyph unicode="k" horiz-adv-x="1273" d="M82 115q0 47 35 81.5t84 34.5h78v1037h-78q-49 0 -84 34t-35 80q0 50 35 84.5t84 34.5h338v-772l381 344h237q49 0 83 -34.5t34 -82.5q0 -46 -34 -80t-83 -34h-141l-197 -170l320 -441h100q49 0 83 -34t34 -82q0 -46 -34 -80.5t-83 -34.5h-375q-47 0 -80.5 34.5 t-33.5 80.5q0 38 19.5 68t53.5 42l-200 277l-84 -72v-199h16q46 0 80.5 -34.5t34.5 -81.5q0 -46 -34.5 -80.5t-80.5 -34.5h-354q-49 0 -84 34.5t-35 80.5z" />
<glyph unicode="l" horiz-adv-x="782" d="M61 1386q0 47 34.5 81t80.5 34h338v-1167q0 -65 39 -96t102 -31q60 -2 156 47h33v-229q-53 -18 -76 -25.5t-63 -15t-80 -7.5q-186 0 -278.5 104t-92.5 298v893h-78q-47 0 -81 32.5t-34 81.5z" />
<glyph unicode="m" horiz-adv-x="1904" d="M82 958q0 46 35 80.5t84 34.5h327v-72q40 40 97 67.5t110 27.5q165 3 269 -123q136 125 270 125q165 0 263.5 -114.5t100.5 -289.5v-461h76q49 0 84 -34t35 -80q0 -49 -34.5 -84t-84.5 -35h-336v657q0 39 -3.5 68t-15 61.5t-38 49.5t-66.5 16q-75 -2 -168 -104v-515h70 q47 0 81 -34t34 -80q0 -49 -34 -84t-81 -35h-326v657q0 30 -1.5 52.5t-8 51t-18.5 47t-34.5 31.5t-53.5 13q-44 0 -92.5 -25.5t-87.5 -60.5v-533h77q47 0 80 -34t33 -80q0 -50 -33 -84.5t-80 -34.5h-409q-49 0 -82 34.5t-33 84.5q0 47 33 80.5t82 33.5h71v611h-73 q-49 0 -84 34t-35 80z" />
<glyph unicode="n" horiz-adv-x="1486" d="M82 119q0 46 35 80t84 34h73v611h-73q-49 0 -83 34t-34 80t34 80.5t83 34.5h325v-69q184 92 314 92q170 0 276.5 -110.5t106.5 -289.5v-463h77q46 0 80.5 -34t34.5 -80q0 -49 -34.5 -84t-80.5 -35h-337v670q2 82 -39 134t-123 52q-63 0 -136.5 -25t-129.5 -63v-535h75 q49 0 82 -33.5t33 -80.5q0 -50 -33 -84.5t-82 -34.5h-409q-49 0 -84 35t-35 84z" />
<glyph unicode="o" horiz-adv-x="1208" d="M92 537q0 254 142 406.5t372 152.5q229 0 369.5 -152.5t140.5 -406.5t-140 -407t-370 -153t-372 153t-142 407zM360 537q0 -150 67 -239t177 -89q111 0 177.5 89t66.5 239t-67 238.5t-177 88.5t-177 -88.5t-67 -238.5z" />
<glyph unicode="p" horiz-adv-x="1304" d="M61 -377q0 46 35 80.5t84 34.5h78v1096q0 107 75.5 183.5t182.5 76.5h174q309 -7 443 -230q79 -139 79 -346q-7 -242 -112 -377q-69 -80 -166 -123t-209 -43q-122 0 -207 54v-291h78q49 0 84 -34.5t35 -80.5t-35 -80.5t-84 -34.5h-416q-49 0 -84 34.5t-35 80.5zM518 233 q113 -26 182 -26q140 7 197 98q51 83 47 213q0 203 -74 279q-65 65 -204 65h-86q-25 0 -43.5 -17.5t-18.5 -41.5v-570z" />
<glyph unicode="q" horiz-adv-x="1304" d="M92 518q0 205 80 346q134 223 442 230h174q107 0 183 -76.5t76 -183.5v-1096h77q49 0 84 -34.5t35 -80.5t-35 -80.5t-84 -34.5h-415q-49 0 -84 34.5t-35 80.5t35 80.5t84 34.5h77v291q-85 -54 -206 -54q-112 0 -209 43t-166 123q-106 137 -113 377zM360 518 q-4 -128 48 -213q57 -91 196 -98q69 0 182 26v570q0 25 -18 42t-43 17h-86q-140 0 -205 -65q-74 -76 -74 -279z" />
<glyph unicode="r" horiz-adv-x="806" d="M82 119q0 49 34.5 81.5t84.5 32.5h75v611h-79q-49 0 -82 33.5t-33 80.5q0 48 33 81.5t82 33.5h331v-69q182 92 351 92v-246h-35q-74 24 -156.5 6.5t-150.5 -59.5v-564h79q47 0 81 -32.5t34 -81.5t-34.5 -84t-80.5 -35h-415q-49 0 -84 35t-35 84z" />
<glyph unicode="s" horiz-adv-x="1005" d="M82 57v230q0 45 35.5 79.5t81.5 34.5t81 -34t35 -80v-72q146 -37 255.5 -7t109.5 114q0 11 -4 21t-9 17t-16 15t-18 12.5t-21.5 11t-21 8.5t-22.5 8t-19 7q-29 13 -86 34.5t-100.5 40.5t-79.5 42q-71 40 -108.5 107t-37.5 145q0 139 101 223q44 36 133.5 59t156.5 23 q148 0 324 -56v-194q0 -50 -34 -84.5t-83 -34.5q-48 0 -82.5 35t-34.5 84v26q-21 5 -56 6.5t-77 -1.5t-72 -22.5t-30 -53.5q0 -42 102 -74q20 -8 66 -25t75 -28t67.5 -27.5t66.5 -32.5q161 -90 164 -290q0 -148 -121 -240q-120 -107 -332 -107q-97 0 -203.5 21t-185.5 59z " />
<glyph unicode="t" horiz-adv-x="819" d="M61 961q0 45 34.5 78.5t80.5 33.5h76v252h260v-252h274v-225h-274v-506q0 -66 39.5 -99.5t101.5 -33.5q13 0 28 2t25 3.5t28 8t24 8.5t27.5 11t23.5 10h41v-227q-139 -48 -227 -48q-187 0 -279 102t-92 296v473h-76q-46 0 -80.5 33t-34.5 80z" />
<glyph unicode="u" horiz-adv-x="1484" d="M72 954q0 49 34 84t80 35h338v-670q-2 -82 39 -134t123 -52q63 0 136.5 25t129.5 63v535h-75q-49 0 -82 33.5t-33 80.5q0 50 33 84.5t82 34.5h335v-844h74q49 0 83 -34t34 -80t-34 -80.5t-83 -34.5h-325v70q-186 -93 -314 -93q-170 0 -276.5 110.5t-106.5 289.5v463h-78 q-46 0 -80 34t-34 80z" />
<glyph unicode="v" horiz-adv-x="1183" d="M-41 956q0 48 35 82.5t84 34.5h368q49 0 83 -34.5t34 -82.5q0 -47 -34 -80.5t-83 -33.5h-16l176 -529l180 529h-18q-47 0 -81 33.5t-34 80.5t34 82t81 35h342q47 0 81 -35t34 -82t-34 -80.5t-81 -33.5h-80l-270 -746q-22 -54 -64.5 -84.5t-99.5 -31.5q-61 0 -106.5 29.5 t-65.5 82.5l-268 750h-78q-49 0 -84 33.5t-35 80.5z" />
<glyph unicode="w" horiz-adv-x="1695" d="M-31 954q0 50 34.5 84.5t84.5 34.5h350q49 0 82 -34.5t33 -84.5q0 -46 -33 -79t-82 -33h-18l145 -496l189 727h186l201 -751l145 520h-16q-49 0 -82 33t-33 79q0 50 33 84.5t82 34.5h338q49 0 83.5 -34.5t34.5 -84.5q0 -46 -34.5 -79t-83.5 -33h-80l-230 -744 q-18 -57 -63.5 -87.5t-106.5 -30.5q-62 2 -109 32t-61 86l-116 469l-115 -465q-15 -56 -60 -88t-104 -34q-61 0 -111 32t-65 86l-225 744h-74q-49 0 -84 33t-35 79z" />
<glyph unicode="x" horiz-adv-x="1193" d="M-41 119q0 46 35 80t82 34h92l258 338l-205 269h-65q-47 0 -82 34t-35 80q0 49 34.5 84t82.5 35h241q48 0 82.5 -35t34.5 -84q0 -59 -45 -90l106 -155l99 155q-45 31 -45 90q0 49 34.5 84t81.5 35h281q48 0 82.5 -35t34.5 -84q0 -46 -35 -80t-82 -34h-61l-189 -260 l250 -347h92q47 0 82 -34t35 -80q0 -49 -34.5 -84t-82.5 -35h-350q-48 0 -82.5 35t-34.5 84q0 40 27 72.5t67 39.5l-141 205l-141 -205q40 -8 67 -39.5t27 -72.5q0 -49 -34.5 -84t-82.5 -35h-364q-48 0 -82.5 35t-34.5 84z" />
<glyph unicode="y" horiz-adv-x="1179" d="M-61 954q0 49 34 84t80 35h365q47 0 80.5 -35t33.5 -84q0 -47 -33.5 -80.5t-80.5 -33.5h-10l206 -488l177 488h-21q-49 0 -82 33t-33 81q0 50 33 84.5t82 34.5h336q46 0 80.5 -35t34.5 -84q0 -47 -34.5 -80.5t-80.5 -33.5h-72l-389 -1071q-58 -149 -166.5 -205 t-302.5 -56h-47v226h88t69.5 4.5t53.5 12.5t41.5 24.5t33 40t27.5 59.5l50 135l-365 830h-74q-46 0 -80 33.5t-34 80.5z" />
<glyph unicode="z" horiz-adv-x="991" d="M61 0v147l514 701h-258v-76q0 -47 -34 -82t-80 -35q-47 0 -82 35t-35 82v301h664q107 0 149 -69q22 -38 16.5 -84t-34.5 -84l-443 -611h252v82q0 45 34.5 78t80.5 33t80.5 -33t34.5 -78v-307h-859z" />
<glyph unicode="{" horiz-adv-x="868" d="M31 365v213h159q109 0 109 104v446q7 150 80 220q88 86 272 86h166v-213h-160q-53 0 -79 -21q-25 -22 -29 -80v-450q0 -56 -35 -115t-82 -84q53 -31 85 -85t32 -114v-444q0 -56 22 -78q22 -25 86 -33h160v-209h-166q-208 0 -293 109q-52 69 -59 195v446q0 56 -25.5 81.5 t-83.5 25.5h-159z" />
<glyph unicode="|" horiz-adv-x="559" d="M195 -492v1995h170v-1995h-170z" />
<glyph unicode="}" horiz-adv-x="868" d="M51 -283h160q64 8 86 33q22 22 22 78v444q0 60 32 114t85 85q-47 25 -82 84t-35 115v450q-4 59 -28 80q-26 21 -80 21h-160v213h166q184 0 272 -86q73 -70 80 -220v-446q0 -104 109 -104h160v-213h-160q-58 0 -83.5 -25.5t-25.5 -81.5v-446q-7 -126 -59 -195 q-85 -109 -293 -109h-166v209z" />
<glyph unicode="~" horiz-adv-x="1302" d="M133 539v204q121 136 287 136q52 0 111.5 -14.5t88.5 -25.5t99 -40q142 -54 186 -54q70 0 140.5 42.5t123.5 101.5v-219q-134 -127 -290 -127q-43 0 -91 11.5t-72 21t-79 32.5q-161 68 -238 68q-135 0 -266 -137z" />
<glyph unicode="&#xa1;" horiz-adv-x="657" d="M195 -360l30 1085h205l33 -1085h-268zM201 815v258h256v-258h-256z" />
<glyph unicode="&#xa2;" horiz-adv-x="1005" d="M92 537q0 152 57.5 274.5t165 197.5t248.5 85v100q0 31 21.5 53.5t52.5 22.5t53.5 -22.5t22.5 -53.5v-104q105 -13 229 -66v-291q0 -47 -34.5 -82t-80.5 -35q-49 0 -81.5 34.5t-32.5 82.5v127q-29 4 -84 4q-141 0 -205 -88t-64 -241q0 -140 70 -233t195 -93q177 0 288 61 h31v-221q-109 -54 -231 -67v-105q0 -31 -22.5 -53.5t-53.5 -22.5t-52.5 22.5t-21.5 53.5v103q-204 24 -337.5 177.5t-133.5 379.5z" />
<glyph unicode="&#xa3;" horiz-adv-x="1146" d="M41 250q39 0 59.5 1.5t42.5 8.5t34 21t22 38t18 62l33 225h-209v238h244l34 215q27 180 167 288.5t325 108.5q114 0 233 -55v-293q0 -53 -37 -89t-89 -36q-53 0 -90 36t-37 89v94q-77 -9 -131.5 -57.5t-67.5 -124.5l-27 -176h346v-238h-385l-28 -217q-6 -39 -31.5 -80 t-56.5 -59h383v110q0 53 36.5 90t90.5 37q52 0 88 -37t36 -90v-360h-1001z" />
<glyph unicode="&#xa4;" horiz-adv-x="1314" d="M133 342l154 152q-72 109 -72 239.5t72 243.5l-154 149l133 131l152 -151q109 72 239.5 72t239.5 -72l154 151l131 -131l-152 -149q70 -113 70 -243.5t-70 -239.5l152 -152l-131 -129l-154 147q-109 -70 -239.5 -70t-239.5 70l-152 -147zM471 547q78 -79 188.5 -79 t186.5 79q78 78 78 187.5t-78 189.5q-76 80 -186.5 80t-188.5 -80t-78 -189.5t78 -187.5z" />
<glyph unicode="&#xa5;" horiz-adv-x="1376" d="M-20 1307q0 53 35 89.5t89 37.5h408q52 0 89.5 -38t37.5 -91t-36 -90t-89 -37l180 -369l183 369h-15q-52 0 -88.5 37t-36.5 90t37.5 91t89.5 38h408q54 -1 89.5 -37.5t35.5 -89.5t-37.5 -91t-89.5 -38h-119l-150 -287h197v-160h-280l-66 -121h346v-159h-377v-197h86 q52 0 89.5 -37t37.5 -90t-37.5 -90t-89.5 -37h-448q-53 0 -90 36.5t-37 90.5t37 90.5t90 36.5h86v197h-379v159h346l-63 121h-283v160h199l-152 287h-107q-52 0 -89 38t-37 91z" />
<glyph unicode="&#xa6;" horiz-adv-x="561" d="M195 233h172v-725h-172v725zM195 776v725h172v-725h-172z" />
<glyph unicode="&#xa7;" horiz-adv-x="1120" d="M102 -156q0 46 35.5 80.5t81.5 34.5t81.5 -34.5t35.5 -80.5v-84q82 -20 145 -20q70 -1 133.5 21.5t108.5 75.5t45 126q0 114 -121 168q-39 18 -161.5 62.5t-184.5 82.5q-92 59 -144 148.5t-55 198.5q0 127 74 219v2q-74 106 -74 250q3 185 131 297t316 112 q109 -1 196 -18t193 -55v-199q0 -50 -34 -84.5t-83 -34.5q-47 0 -81.5 35t-34.5 84v26q-63 13 -123 13q-51 0 -102.5 -17t-91.5 -55.5t-40 -89.5q-1 -38 9 -66.5t32 -49.5t44.5 -34t60.5 -30q42 -20 118 -47.5t137.5 -55t108.5 -63.5q160 -121 160 -324q0 -128 -72 -221 q72 -109 72 -244q0 -116 -42.5 -206.5t-116.5 -146t-169 -84t-205 -28.5q-168 0 -383 74v262zM356 702q-23 -57 -0.5 -111.5t76.5 -86.5q48 -30 100.5 -52.5t127.5 -49t102 -37.5q19 62 -5 117.5t-81 88.5q-52 33 -165 71.5t-155 59.5z" />
<glyph unicode="&#xa8;" horiz-adv-x="761" d="M92 1192v225h221v-225h-221zM444 1192v225h226v-225h-226z" />
<glyph unicode="&#xa9;" horiz-adv-x="1742" d="M133 715q0 151 58 288.5t157 236.5t235.5 157.5t286.5 58.5q151 0 288 -58.5t236 -157.5t157.5 -236.5t58.5 -288.5q0 -150 -58.5 -286.5t-157.5 -235.5t-236 -157.5t-288 -58.5q-150 0 -286.5 58.5t-235.5 157.5t-157 235.5t-58 286.5zM270 715q0 -122 47.5 -233 t127.5 -191t191.5 -127t233.5 -47q123 0 235 47t193 127t129 191t48 233q0 123 -48 234.5t-129 192t-193 128t-235 47.5q-122 0 -233.5 -47.5t-191.5 -128t-127.5 -192t-47.5 -234.5zM516 723q0 182 107 297q107 127 299 127q92 0 219 -43v-170q0 -27 -20.5 -48.5 t-49.5 -21.5t-50.5 21.5t-21.5 48.5v53q-48 10 -77 10q-123 0 -181 -73q-63 -77 -63 -207q0 -128 65 -207q66 -78 179 -78q125 8 200 53h21v-155q-107 -45 -219 -45q-174 0 -281 104q-127 121 -127 334z" />
<glyph unicode="&#xaa;" horiz-adv-x="942" d="M94 950q3 92 60 152t147 72l236 34q0 36 -32.5 59.5t-67 30.5t-66.5 7q-98 0 -193 -45h-20v161q119 39 219 39q67 0 122.5 -12t104.5 -38.5t76.5 -77t26.5 -120.5v-335h57q29 0 52.5 -23.5t23.5 -54.5q0 -32 -23 -55t-53 -23h-223v61q-82 -82 -197 -82q-115 3 -185 73.5 t-65 176.5zM268 950q0 -88 115 -88q70 0 152 47v158q-127 -17 -185 -29q-82 -14 -82 -88z" />
<glyph unicode="&#xab;" horiz-adv-x="1292" d="M133 535l359 487h210l-331 -487l331 -490h-210zM590 535l358 487h211l-332 -487l332 -490h-211z" />
<glyph unicode="&#xac;" horiz-adv-x="1277" d="M133 809v186h991v-575h-186v389h-805z" />
<glyph unicode="&#xad;" horiz-adv-x="985" d="M133 428v219h719v-219h-719z" />
<glyph unicode="&#xae;" horiz-adv-x="1746" d="M133 715q0 151 58.5 288.5t157.5 236.5t236.5 157.5t288.5 58.5q150 0 287 -58.5t236.5 -157.5t158 -236.5t58.5 -288.5q0 -150 -58.5 -286.5t-158 -235.5t-236.5 -157.5t-287 -58.5q-151 0 -288.5 58.5t-236.5 157.5t-157.5 235.5t-58.5 286.5zM260 715 q0 -166 82.5 -308t224 -224.5t307.5 -82.5q125 0 239 49t196.5 131.5t131 196t48.5 238.5t-48.5 239t-131 196t-196.5 130.5t-239 48.5q-166 0 -307.5 -82t-224 -223.5t-82.5 -308.5zM453 401q0 29 21 50.5t48 21.5h51v164h-51q-27 0 -48 20.5t-21 49.5t21 50t48 21h51v228 q0 33 13 63.5t34.5 52t51.5 34.5t63 13h125q11 0 30 -0.5t30 -0.5t27.5 -1t29 -3t27.5 -5.5t29 -9t28 -12.5q62 -30 95.5 -92.5t33.5 -135.5q0 -57 -18.5 -107t-56 -88t-89.5 -55l133 -186h72q27 0 48 -21.5t21 -50.5t-21 -49t-48 -20h-260q-27 0 -48.5 20t-21.5 49 q0 28 21 50t45 22l-115 164h-121v-164h41q27 0 48.5 -21.5t21.5 -50.5t-21.5 -49t-48.5 -20h-250q-27 0 -48 20t-21 49zM731 778h141q49 0 95 19q66 32 59 114q0 30 -10.5 57t-30.5 38q-6 5 -13.5 8.5t-14 5.5t-16 4t-15 2.5t-17 1t-15.5 0.5h-16h-14h-96q-10 0 -18.5 -5.5 t-13.5 -14.5t-5 -19v-211z" />
<glyph unicode="&#xaf;" horiz-adv-x="897" d="M92 1278v100h713v-100h-713z" />
<glyph unicode="&#xb0;" horiz-adv-x="1017" d="M133 1071q0 157 109 267t266 110t267 -110t110 -267t-110 -266t-267 -109t-266 109t-109 266zM295 1071q0 -91 61 -152t152 -61q92 0 153.5 61t61.5 152q0 92 -61.5 153.5t-153.5 61.5q-91 0 -152 -61.5t-61 -153.5z" />
<glyph unicode="&#xb1;" horiz-adv-x="1224" d="M133 0v184h959v-184h-959zM133 641v184h387v387h185v-387h387v-184h-387v-387h-185v387h-387z" />
<glyph unicode="&#xb2;" horiz-adv-x="665" d="M92 721v82l281 356q31 39 37 82q0 47 -31 70.5t-76 23.5q-47 0 -89.5 -12.5t-63.5 -34.5h-19v127q82 43 174 43q115 0 184 -78q51 -57 48 -139q0 -82 -54 -149l-217 -252h160v39q0 24 16.5 40.5t42.5 16.5q25 0 41.5 -17t16.5 -40v-158h-451z" />
<glyph unicode="&#xb3;" horiz-adv-x="661" d="M92 748v122h14q36 -21 85 -34t90 -13q47 0 87 32.5t40 80.5q0 111 -172 111h-54v112h39q152 0 152 92q0 40 -34 65t-77 25q-89 0 -141 -36h-19v122q82 31 160 31q97 0 169.5 -53.5t72.5 -147.5q0 -47 -27.5 -91t-70.5 -54q59 -19 94.5 -66.5t38.5 -109.5q0 -103 -78 -165 t-189 -62q-88 0 -180 39z" />
<glyph unicode="&#xb4;" horiz-adv-x="571" d="M92 1151l176 307h211l-231 -307h-156z" />
<glyph unicode="&#xb6;" horiz-adv-x="1263" d="M20 1047q0 161 113 274t273 113h688q35 0 61.5 -26t26.5 -60q0 -38 -26.5 -65.5t-61.5 -27.5h-60v-1568h60q35 0 61.5 -26t26.5 -60q0 -38 -26.5 -65.5t-61.5 -27.5h-246v1747h-203v-1747h-248q-35 0 -61.5 27.5t-26.5 65.5q0 34 26.5 60t61.5 26h62v975h-53 q-160 0 -273 113t-113 272z" />
<glyph unicode="&#xb7;" horiz-adv-x="663" d="M195 580v272h274v-272h-274z" />
<glyph unicode="&#xb8;" horiz-adv-x="768" d="M133 -412l90 121q73 -51 150 -51q102 0 102 78q0 37 -42 63t-93 34.5t-92 4.5l45 254l143 -26l-22 -125q211 -33 221 -201q0 -110 -75.5 -171t-182.5 -61q-126 0 -244 80z" />
<glyph unicode="&#xb9;" horiz-adv-x="622" d="M92 1309l121 104q49 45 102 45q44 -3 66 -31t22 -73v-516h39q24 0 41 -17t17 -43q0 -24 -17 -40.5t-41 -16.5h-204q-25 0 -41.5 16t-16.5 41q0 26 16.5 43t41.5 17h38v471l-106 -90z" />
<glyph unicode="&#xba;" horiz-adv-x="880" d="M92 1079q0 176 94.5 277.5t243.5 101.5q157 0 257.5 -101.5t100.5 -277.5t-96 -276.5t-252 -100.5t-252 100.5t-96 276.5zM268 1079q0 -106 43.5 -164.5t126.5 -58.5q84 0 129 59t45 164q0 106 -45 166t-129 60t-127 -59.5t-43 -166.5z" />
<glyph unicode="&#xbb;" horiz-adv-x="1292" d="M133 45l332 490l-332 487h211l358 -487l-358 -490h-211zM590 45l332 490l-332 487h211l358 -487l-358 -490h-211z" />
<glyph unicode="&#xbc;" horiz-adv-x="1353" d="M92 1309l121 104q49 45 102 45q44 -3 66 -31t22 -73v-516h39q24 0 41 -17t17 -43q0 -24 -17 -40.5t-41 -16.5h-204q-25 0 -41.5 16t-16.5 41q0 26 16.5 43t41.5 17h38v471l-106 -90zM170 -27l799 1493h141l-797 -1493h-143zM688 225q-21 36 4 74l254 387q28 47 94 47 q41 0 67 -30.5t26 -71.5v-324h38q25 0 42.5 -17t17.5 -44q0 -25 -17.5 -41.5t-42.5 -16.5h-38v-71h41q24 0 40.5 -17t16.5 -43q0 -24 -16.5 -40.5t-40.5 -16.5h-205q-25 0 -41.5 16t-16.5 41q0 26 16.5 43t41.5 17h39v71h-250q-51 0 -70 37zM829 307h179v271z" />
<glyph unicode="&#xbd;" horiz-adv-x="1445" d="M92 1309l121 104q49 45 102 45q44 -3 66 -31t22 -73v-516h39q24 0 41 -17t17 -43q0 -24 -17 -40.5t-41 -16.5h-204q-25 0 -41.5 16t-16.5 41q0 26 16.5 43t41.5 17h38v471l-106 -90zM246 -27l798 1493h142l-797 -1493h-143zM872 0v82l281 356q31 39 37 82q0 47 -31 70.5 t-76 23.5q-47 0 -89.5 -12.5t-63.5 -34.5h-19v127q82 43 174 43q116 0 185 -78q51 -56 47 -139q0 -83 -53 -149l-217 -252h159v39q0 24 17 40.5t43 16.5q24 0 40.5 -16.5t16.5 -40.5v-158h-451z" />
<glyph unicode="&#xbe;" horiz-adv-x="1421" d="M92 748v122h14q36 -21 85 -34t90 -13q47 0 87 32.5t40 80.5q0 111 -172 111h-54v112h39q152 0 152 92q0 40 -34 65t-77 25q-89 0 -141 -36h-19v122q82 31 160 31q97 0 169.5 -53.5t72.5 -147.5q0 -47 -27.5 -91t-70.5 -54q59 -19 94.5 -66.5t38.5 -109.5q0 -103 -78 -165 t-189 -62q-88 0 -180 39zM242 -27l798 1493h142l-797 -1493h-143zM756 225q-21 36 4 74l254 387q28 47 94 47q41 0 66.5 -30t25.5 -72v-324h39q25 0 42 -17t17 -44q0 -25 -17 -41.5t-42 -16.5h-39v-71h41q24 0 40.5 -17t16.5 -43q0 -24 -16.5 -40.5t-40.5 -16.5h-205 q-25 0 -41 16t-16 41q0 26 16 43t41 17h39v71h-250q-50 0 -69 37zM897 307h178v271z" />
<glyph unicode="&#xbf;" horiz-adv-x="1017" d="M123 -6q0 95 43.5 178t118.5 133q25 19 96 55t96 60q21 19 32 47.5t13 50.5t2 57v156h240v-182q-7 -139 -53 -217q-11 -19 -22.5 -34.5t-29 -30.5t-25.5 -23t-33.5 -23t-30 -18t-37.5 -20.5t-35 -18.5q-115 -70 -115 -166q0 -49 33.5 -82t77 -46t90.5 -13 q76 0 150.5 26.5t129.5 75.5h41v-233q-189 -109 -348 -109q-167 0 -295 94q-139 114 -139 283zM516 817v256h256v-256h-256z" />
<glyph unicode="&#xc0;" d="M-20 129q0 54 38.5 90.5t92.5 36.5h90l399 1067q24 62 75.5 94.5t115.5 32.5q65 0 114.5 -32.5t73.5 -94.5l405 -1067h95q53 0 90 -36.5t37 -90.5q0 -51 -37 -89.5t-88 -39.5h-416q-51 0 -89 38.5t-38 90.5q0 53 37.5 90t89.5 37h29l-39 104h-541l-41 -104h29 q52 0 89.5 -37t37.5 -90q0 -52 -38 -90.5t-89 -38.5h-398q-51 0 -87.5 39t-36.5 90zM600 602h369l-185 512zM600 1819h207l178 -308h-158z" />
<glyph unicode="&#xc1;" d="M-20 129q0 54 38.5 90.5t92.5 36.5h90l399 1067q24 62 75.5 94.5t115.5 32.5q65 0 114.5 -32.5t73.5 -94.5l405 -1067h95q53 0 90 -36.5t37 -90.5q0 -51 -37 -89.5t-88 -39.5h-416q-51 0 -89 38.5t-38 90.5q0 53 37.5 90t89.5 37h29l-39 104h-541l-41 -104h29 q52 0 89.5 -37t37.5 -90q0 -52 -38 -90.5t-89 -38.5h-398q-51 0 -87.5 39t-36.5 90zM598 1511l176 308h211l-231 -308h-156zM600 602h369l-185 512z" />
<glyph unicode="&#xc2;" d="M-20 129q0 54 38.5 90.5t92.5 36.5h90l399 1067q24 62 75.5 94.5t115.5 32.5q65 0 114.5 -32.5t73.5 -94.5l405 -1067h95q53 0 90 -36.5t37 -90.5q0 -51 -37 -89.5t-88 -39.5h-416q-51 0 -89 38.5t-38 90.5q0 53 37.5 90t89.5 37h29l-39 104h-541l-41 -104h29 q52 0 89.5 -37t37.5 -90q0 -52 -38 -90.5t-89 -38.5h-398q-51 0 -87.5 39t-36.5 90zM510 1513l180 308h205l178 -308h-158l-124 166l-123 -166h-158zM600 602h369l-185 512z" />
<glyph unicode="&#xc3;" d="M-20 129q0 54 38.5 90.5t92.5 36.5h90l399 1067q24 62 75.5 94.5t115.5 32.5q65 0 114.5 -32.5t73.5 -94.5l405 -1067h95q53 0 90 -36.5t37 -90.5q0 -51 -37 -89.5t-88 -39.5h-416q-51 0 -89 38.5t-38 90.5q0 53 37.5 90t89.5 37h29l-39 104h-541l-41 -104h29 q52 0 89.5 -37t37.5 -90q0 -52 -38 -90.5t-89 -38.5h-398q-51 0 -87.5 39t-36.5 90zM422 1630q93 159 242 162q76 0 157 -43q2 -1 16.5 -12t18 -13t16 -9.5t20 -9.5t19 -4.5t23.5 -2.5q25 0 44 12t28.5 25.5t23.5 40.5l133 -72q-43 -80 -99 -121t-140 -41q-72 0 -148 37 q-6 4 -28 18t-31 19t-27 10.5t-35 5.5q-25 0 -44.5 -11.5t-28.5 -23t-27 -38.5zM600 602h369l-185 512z" />
<glyph unicode="&#xc4;" d="M-20 129q0 54 38.5 90.5t92.5 36.5h90l399 1067q24 62 75.5 94.5t115.5 32.5q65 0 114.5 -32.5t73.5 -94.5l405 -1067h95q53 0 90 -36.5t37 -90.5q0 -51 -37 -89.5t-88 -39.5h-416q-51 0 -89 38.5t-38 90.5q0 53 37.5 90t89.5 37h29l-39 104h-541l-41 -104h29 q52 0 89.5 -37t37.5 -90q0 -52 -38 -90.5t-89 -38.5h-398q-51 0 -87.5 39t-36.5 90zM504 1552v226h221v-226h-221zM600 602h369l-185 512zM856 1552v226h225v-226h-225z" />
<glyph unicode="&#xc5;" d="M-20 129q0 54 38.5 90.5t92.5 36.5h90l399 1067q24 62 75.5 94.5t115.5 32.5q65 0 114.5 -32.5t73.5 -94.5l405 -1067h95q53 0 90 -36.5t37 -90.5q0 -51 -37 -89.5t-88 -39.5h-416q-51 0 -89 38.5t-38 90.5q0 53 37.5 90t89.5 37h29l-39 104h-541l-41 -104h29 q52 0 89.5 -37t37.5 -90q0 -52 -38 -90.5t-89 -38.5h-398q-51 0 -87.5 39t-36.5 90zM594 1667q0 83 57 140t140 57q82 0 140 -57t58 -140q0 -81 -58 -137.5t-140 -56.5q-83 0 -140 56t-57 138zM600 602h369l-185 512zM705 1667q0 -36 25 -61t61 -25q37 0 61.5 24.5 t24.5 61.5q0 36 -25 61t-61 25q-35 0 -60.5 -25.5t-25.5 -60.5z" />
<glyph unicode="&#xc6;" horiz-adv-x="1888" d="M-102 127q0 54 36.5 90.5t90.5 36.5h86l567 1026q39 69 109 111.5t153 42.5h928v-330q0 -54 -37.5 -90.5t-91.5 -36.5t-90.5 36.5t-36.5 90.5v74h-342q-26 0 -45 -19t-19 -45v-240h408v-239h-408v-379h408l-2 123q0 54 36.5 90.5t90.5 36.5t91.5 -36.5t37.5 -90.5v-379 h-938v362h-451l-65 -108h55q53 0 91 -37t38 -90t-38 -90t-91 -37h-444q-54 0 -90.5 36.5t-36.5 90.5zM608 604h322v563h-6z" />
<glyph unicode="&#xc7;" horiz-adv-x="1226" d="M102 725q0 141 46.5 276t138.5 240q191 215 516 215q99 -1 187 -19.5t190 -54.5v-385q0 -52 -37 -89.5t-90 -37.5q-52 0 -88.5 37.5t-36.5 89.5v195q-64 12 -125 12q-193 3 -309 -133q-54 -67 -80.5 -161.5t-26.5 -192.5q0 -99 27.5 -196t83.5 -163q38 -43 88 -72.5 t105.5 -43.5t115.5 -13q83 0 177.5 23t164.5 61h37v-260q-162 -59 -296 -72l-7 -40q211 -33 221 -201q0 -110 -75.5 -171t-182.5 -61q-126 0 -244 80l90 121q73 -51 150 -51q102 0 102 78q0 37 -42 63t-93 34.5t-92 4.5l25 141q-258 19 -416 175q-224 213 -224 571z" />
<glyph unicode="&#xc8;" horiz-adv-x="1386" d="M123 127q0 54 36.5 90.5t90.5 36.5h82v381h-92q-47 0 -82 36t-35 83q0 49 35 84.5t82 35.5h92v283q0 114 80.5 195.5t195.5 81.5h717v-330q0 -54 -37.5 -90.5t-91.5 -36.5t-90.5 36.5t-36.5 90.5v80h-395q-26 0 -46 -19t-20 -45v-246h459v-239h-459v-385h461v129 q0 54 36.5 90.5t90.5 36.5t91.5 -36.5t37.5 -90.5v-379h-1075q-54 0 -90.5 36.5t-36.5 90.5zM573 1819h207l178 -308h-157z" />
<glyph unicode="&#xc9;" horiz-adv-x="1386" d="M123 127q0 54 36.5 90.5t90.5 36.5h82v381h-92q-47 0 -82 36t-35 83q0 49 35 84.5t82 35.5h92v283q0 114 80.5 195.5t195.5 81.5h717v-330q0 -54 -37.5 -90.5t-91.5 -36.5t-90.5 36.5t-36.5 90.5v80h-395q-26 0 -46 -19t-20 -45v-246h459v-239h-459v-385h461v129 q0 54 36.5 90.5t90.5 36.5t91.5 -36.5t37.5 -90.5v-379h-1075q-54 0 -90.5 36.5t-36.5 90.5zM690 1511l176 308h211l-231 -308h-156z" />
<glyph unicode="&#xca;" horiz-adv-x="1386" d="M123 127q0 54 36.5 90.5t90.5 36.5h82v381h-92q-47 0 -82 36t-35 83q0 49 35 84.5t82 35.5h92v283q0 114 80.5 195.5t195.5 81.5h717v-330q0 -54 -37.5 -90.5t-91.5 -36.5t-90.5 36.5t-36.5 90.5v80h-395q-26 0 -46 -19t-20 -45v-246h459v-239h-459v-385h461v129 q0 54 36.5 90.5t90.5 36.5t91.5 -36.5t37.5 -90.5v-379h-1075q-54 0 -90.5 36.5t-36.5 90.5zM539 1513l180 308h205l178 -308h-158l-125 166l-123 -166h-157z" />
<glyph unicode="&#xcb;" horiz-adv-x="1386" d="M123 127q0 54 36.5 90.5t90.5 36.5h82v381h-92q-47 0 -82 36t-35 83q0 49 35 84.5t82 35.5h92v283q0 114 80.5 195.5t195.5 81.5h717v-330q0 -54 -37.5 -90.5t-91.5 -36.5t-90.5 36.5t-36.5 90.5v80h-395q-26 0 -46 -19t-20 -45v-246h459v-239h-459v-385h461v129 q0 54 36.5 90.5t90.5 36.5t91.5 -36.5t37.5 -90.5v-379h-1075q-54 0 -90.5 36.5t-36.5 90.5zM559 1552v226h221v-226h-221zM911 1552v226h226v-226h-226z" />
<glyph unicode="&#xcc;" horiz-adv-x="948" d="M123 127q0 54 36.5 90.5t90.5 36.5h86v924h-86q-54 0 -90.5 36.5t-36.5 90.5q0 53 37 91t90 38h446q52 0 90.5 -38t38.5 -91t-38 -90t-91 -37h-84v-924h84q53 0 91 -37t38 -90t-38 -90t-91 -37h-446q-54 -1 -90.5 36t-36.5 91zM281 1819h206l179 -308h-158z" />
<glyph unicode="&#xcd;" horiz-adv-x="948" d="M123 127q0 54 36.5 90.5t90.5 36.5h86v924h-86q-54 0 -90.5 36.5t-36.5 90.5q0 53 37 91t90 38h446q52 0 90.5 -38t38.5 -91t-38 -90t-91 -37h-84v-924h84q53 0 91 -37t38 -90t-38 -90t-91 -37h-446q-54 -1 -90.5 36t-36.5 91zM336 1511l176 308h211l-231 -308h-156z" />
<glyph unicode="&#xce;" horiz-adv-x="948" d="M123 127q0 54 36.5 90.5t90.5 36.5h86v924h-86q-54 0 -90.5 36.5t-36.5 90.5q0 53 37 91t90 38h446q52 0 90.5 -38t38.5 -91t-38 -90t-91 -37h-84v-924h84q53 0 91 -37t38 -90t-38 -90t-91 -37h-446q-54 -1 -90.5 36t-36.5 91zM193 1513l180 308h205l178 -308h-158 l-125 166l-123 -166h-157z" />
<glyph unicode="&#xcf;" horiz-adv-x="948" d="M123 127q0 54 36.5 90.5t90.5 36.5h86v924h-86q-54 0 -90.5 36.5t-36.5 90.5q0 53 37 91t90 38h446q52 0 90.5 -38t38.5 -91t-38 -90t-91 -37h-84v-924h84q53 0 91 -37t38 -90t-38 -90t-91 -37h-446q-54 -1 -90.5 36t-36.5 91zM184 1552v226h222v-226h-222zM537 1552v226 h225v-226h-225z" />
<glyph unicode="&#xd0;" horiz-adv-x="1605" d="M113 127q0 54 38.5 90.5t92.5 36.5h82v424h-119q-39 0 -66.5 26t-27.5 64q0 39 27.5 65.5t66.5 26.5h119v297q0 114 81.5 195.5t196.5 81.5h205q340 -3 517 -184t177 -521q0 -344 -172 -536.5t-502 -192.5h-585q-54 0 -92.5 36.5t-38.5 90.5zM602 252h193q86 0 150 11.5 t111.5 37t78.5 62t50 90.5t26.5 117.5t7.5 148.5q0 121 -18.5 204t-63 143t-122.5 88t-194 28h-153q-9 0 -17.5 -2.5t-16 -6.5t-13.5 -10t-10 -13t-6.5 -15t-2.5 -17v-258h350v-182h-350v-426z" />
<glyph unicode="&#xd1;" horiz-adv-x="1822" d="M113 129q0 54 37 90.5t90 36.5h82v1006q0 75 45.5 131t119.5 57q122 0 201 -121l559 -876v727h-84q-54 0 -90.5 36.5t-36.5 90.5q0 53 36.5 90t90.5 37h416q54 0 92.5 -37.5t38.5 -89.5q0 -54 -38.5 -90.5t-92.5 -36.5h-82v-1180h-264l-662 1038v-782h82q54 0 90.5 -36.5 t36.5 -90.5q0 -53 -37 -91t-90 -38h-413q-52 0 -89.5 38t-37.5 91zM602 1630q93 159 242 162q76 0 157 -43q2 -1 16.5 -12t18 -13t16 -9.5t20 -9.5t19 -4.5t23.5 -2.5q25 0 44 12t28.5 25.5t23.5 40.5l133 -72q-43 -80 -99 -121t-140 -41q-72 0 -148 37q-7 4 -28 18 t-30.5 19t-27 10.5t-34.5 5.5q-25 0 -44.5 -11t-29.5 -23.5t-27 -38.5z" />
<glyph unicode="&#xd2;" horiz-adv-x="1562" d="M102 717q0 333 189.5 536t488.5 203q197 0 351 -90.5t241.5 -259t87.5 -389.5q0 -166 -51 -305t-141 -234t-215.5 -148t-272.5 -53t-272.5 53t-215 148.5t-140 234t-50.5 304.5zM387 717q0 -225 106.5 -356.5t286.5 -131.5q181 0 288.5 131.5t107.5 356.5q0 207 -110 348 t-286 141q-180 0 -286.5 -132t-106.5 -357zM588 1819h207l178 -308h-158z" />
<glyph unicode="&#xd3;" horiz-adv-x="1562" d="M102 717q0 333 189.5 536t488.5 203q197 0 351 -90.5t241.5 -259t87.5 -389.5q0 -166 -51 -305t-141 -234t-215.5 -148t-272.5 -53t-272.5 53t-215 148.5t-140 234t-50.5 304.5zM387 717q0 -225 106.5 -356.5t286.5 -131.5q181 0 288.5 131.5t107.5 356.5q0 207 -110 348 t-286 141q-180 0 -286.5 -132t-106.5 -357zM588 1511l176 308h211l-232 -308h-155z" />
<glyph unicode="&#xd4;" horiz-adv-x="1562" d="M102 717q0 333 189.5 536t488.5 203q197 0 351 -90.5t241.5 -259t87.5 -389.5q0 -166 -51 -305t-141 -234t-215.5 -148t-272.5 -53t-272.5 53t-215 148.5t-140 234t-50.5 304.5zM387 717q0 -225 106.5 -356.5t286.5 -131.5q181 0 288.5 131.5t107.5 356.5q0 207 -110 348 t-286 141q-180 0 -286.5 -132t-106.5 -357zM500 1513l180 308h205l178 -308h-158l-125 166l-123 -166h-157z" />
<glyph unicode="&#xd5;" horiz-adv-x="1562" d="M102 717q0 333 189.5 536t488.5 203q197 0 351 -90.5t241.5 -259t87.5 -389.5q0 -166 -51 -305t-141 -234t-215.5 -148t-272.5 -53t-272.5 53t-215 148.5t-140 234t-50.5 304.5zM387 717q0 -225 106.5 -356.5t286.5 -131.5q181 0 288.5 131.5t107.5 356.5q0 207 -110 348 t-286 141q-180 0 -286.5 -132t-106.5 -357zM410 1630q93 159 241 162q77 0 158 -43q2 -1 16.5 -12t18 -13t16 -9.5t20 -9.5t19 -4.5t23.5 -2.5q25 0 44 12t28.5 25.5t23.5 40.5l133 -72q-43 -79 -99.5 -120.5t-140.5 -41.5q-71 0 -147 37q-6 4 -28 18t-31 19t-27 10.5 t-35 5.5q-25 0 -44.5 -11.5t-28.5 -23t-27 -38.5z" />
<glyph unicode="&#xd6;" horiz-adv-x="1562" d="M102 717q0 333 189.5 536t488.5 203q197 0 351 -90.5t241.5 -259t87.5 -389.5q0 -166 -51 -305t-141 -234t-215.5 -148t-272.5 -53t-272.5 53t-215 148.5t-140 234t-50.5 304.5zM387 717q0 -225 106.5 -356.5t286.5 -131.5q181 0 288.5 131.5t107.5 356.5q0 207 -110 348 t-286 141q-180 0 -286.5 -132t-106.5 -357zM492 1552v226h221v-226h-221zM844 1552v226h225v-226h-225z" />
<glyph unicode="&#xd7;" horiz-adv-x="1210" d="M174 412l301 299l-301 299l129 129l299 -299l301 299l131 -131l-299 -299l301 -301l-129 -129l-301 301l-301 -301z" />
<glyph unicode="&#xd8;" horiz-adv-x="1619" d="M82 104l170 170q-117 188 -117 443q0 333 189.5 536t488.5 203q275 0 455 -168l159 160l111 -115l-168 -168q123 -188 123 -448q0 -166 -51 -305t-141 -234t-215.5 -148t-272.5 -53q-274 0 -459 173l-159 -160zM420 717q0 -130 39 -236l614 613q-109 112 -260 112 q-180 0 -286.5 -132t-106.5 -357zM545 340q105 -111 268 -111q181 0 288 131.5t107 356.5q0 130 -47 239z" />
<glyph unicode="&#xd9;" horiz-adv-x="1705" d="M82 1309q0 53 36.5 89t90.5 36h442q55 -2 93 -37.5t38 -87.5q0 -54 -38.5 -92.5t-92.5 -38.5h-82v-641q0 -144 54 -220q73 -90 241 -90q165 0 246 107q53 76 53 201v643h-90q-54 0 -90.5 38.5t-36.5 92.5q0 53 36.5 89t90.5 36h422q53 0 91 -36.5t38 -88.5 q0 -54 -38 -92.5t-91 -38.5h-82v-557q0 -152 -20 -253t-88 -192q-77 -101 -198.5 -150t-254.5 -49q-147 0 -273 59.5t-198 170.5q-54 83 -71 183t-17 231v557h-84q-54 0 -90.5 38.5t-36.5 92.5zM602 1819h207l178 -308h-158z" />
<glyph unicode="&#xda;" horiz-adv-x="1705" d="M82 1309q0 53 36.5 89t90.5 36h442q55 -2 93 -37.5t38 -87.5q0 -54 -38.5 -92.5t-92.5 -38.5h-82v-641q0 -144 54 -220q73 -90 241 -90q165 0 246 107q53 76 53 201v643h-90q-54 0 -90.5 38.5t-36.5 92.5q0 53 36.5 89t90.5 36h422q53 0 91 -36.5t38 -88.5 q0 -54 -38 -92.5t-91 -38.5h-82v-557q0 -152 -20 -253t-88 -192q-77 -101 -198.5 -150t-254.5 -49q-147 0 -273 59.5t-198 170.5q-54 83 -71 183t-17 231v557h-84q-54 0 -90.5 38.5t-36.5 92.5zM770 1511l176 308h211l-231 -308h-156z" />
<glyph unicode="&#xdb;" horiz-adv-x="1705" d="M82 1309q0 53 36.5 89t90.5 36h442q55 -2 93 -37.5t38 -87.5q0 -54 -38.5 -92.5t-92.5 -38.5h-82v-641q0 -144 54 -220q73 -90 241 -90q165 0 246 107q53 76 53 201v643h-90q-54 0 -90.5 38.5t-36.5 92.5q0 53 36.5 89t90.5 36h422q53 0 91 -36.5t38 -88.5 q0 -54 -38 -92.5t-91 -38.5h-82v-557q0 -152 -20 -253t-88 -192q-77 -101 -198.5 -150t-254.5 -49q-147 0 -273 59.5t-198 170.5q-54 83 -71 183t-17 231v557h-84q-54 0 -90.5 38.5t-36.5 92.5zM571 1513l181 308h204l179 -308h-158l-125 166l-123 -166h-158z" />
<glyph unicode="&#xdc;" horiz-adv-x="1705" d="M82 1309q0 53 36.5 89t90.5 36h442q55 -2 93 -37.5t38 -87.5q0 -54 -38.5 -92.5t-92.5 -38.5h-82v-641q0 -144 54 -220q73 -90 241 -90q165 0 246 107q53 76 53 201v643h-90q-54 0 -90.5 38.5t-36.5 92.5q0 53 36.5 89t90.5 36h422q53 0 91 -36.5t38 -88.5 q0 -54 -38 -92.5t-91 -38.5h-82v-557q0 -152 -20 -253t-88 -192q-77 -101 -198.5 -150t-254.5 -49q-147 0 -273 59.5t-198 170.5q-54 83 -71 183t-17 231v557h-84q-54 0 -90.5 38.5t-36.5 92.5zM563 1552v226h221v-226h-221zM915 1552v226h226v-226h-226z" />
<glyph unicode="&#xdd;" horiz-adv-x="1335" d="M-41 1307q0 53 35.5 89.5t89.5 37.5h408q52 0 89 -38t37 -91t-35.5 -90t-88.5 -37l180 -369l182 369h-14q-52 0 -88.5 37t-36.5 90t37.5 91t89.5 38h407q54 -1 89.5 -37.5t35.5 -89.5t-37.5 -91t-89.5 -38h-119l-329 -629v-295h86q52 0 89.5 -37t37.5 -90t-37.5 -90 t-89.5 -37h-449q-53 0 -90 36.5t-37 90.5t37 90.5t90 36.5h86v295l-331 629h-107q-52 0 -89.5 38t-37.5 91zM522 1511l176 308h211l-231 -308h-156z" />
<glyph unicode="&#xde;" horiz-adv-x="1361" d="M123 127q0 54 36.5 90.5t90.5 36.5h86v924h-86q-54 0 -90.5 36.5t-36.5 90.5q0 53 37 91t90 38h364l-2 -258h142q78 0 121.5 -2t106.5 -15t118 -39q107 -55 164 -163.5t55 -233.5q0 -257 -189 -379q-79 -49 -169 -66.5t-203 -17.5h-146v-260h-362q-54 -1 -90.5 36 t-36.5 91zM612 504h162q102 0 162 33q107 47 100 194q0 49 -17.5 95t-51.5 69q-12 8 -25.5 14.5t-30 10.5t-29 6t-33 3t-30 1h-32.5h-29h-146v-426z" />
<glyph unicode="&#xdf;" horiz-adv-x="1292" d="M61 115q0 46 35 80t84 34h78v453h-78q-50 0 -84.5 35t-34.5 84q0 46 35 80t84 34h78v175q3 91 34.5 173t92.5 136q60 53 147.5 79.5t176.5 24.5q84 1 160.5 -24t137 -73t96.5 -126t36 -174q0 -97 -60 -183t-139 -110q126 -41 188 -143t62 -240q0 -126 -66 -231.5 t-175 -164.5t-234 -59q-69 0 -127 17v225h41q32 -12 71 -12q103 3 162.5 71t59.5 175q1 108 -78 168t-187 65h-22v229h20q213 4 213 189q-4 167 -168 170q-78 1 -128.5 -56t-53.5 -143v-1073h-338q-49 0 -84 34.5t-35 80.5z" />
<glyph unicode="&#xe0;" horiz-adv-x="1263" d="M84 328q-2 95 41.5 171.5t113 120.5t154.5 56l352 51q-4 48 -51 82t-98 46.5t-94 12.5q-70 0 -148 -17t-137 -46h-29v237q190 54 318 54q77 0 146 -11.5t133.5 -38.5t111 -68t74.5 -104t28 -141v-504h78q46 0 80.5 -34t34.5 -80q0 -49 -34 -82t-81 -33h-327v98 q-56 -59 -133 -91t-156 -32q-160 0 -266.5 98.5t-110.5 254.5zM346 342q0 -70 45.5 -103.5t116.5 -33.5q108 0 231 74v241q-38 -7 -128.5 -20t-139.5 -23q-125 -24 -125 -135zM350 1458h207l178 -307h-157z" />
<glyph unicode="&#xe1;" horiz-adv-x="1243" d="M63 328q-3 141 87.5 235.5t222.5 112.5l352 51q-3 37 -31 65.5t-67.5 44t-77.5 23.5t-68 8q-70 0 -147.5 -17t-136.5 -46h-29v237q190 54 317 54q97 0 181.5 -19.5t156.5 -60t114 -113.5t42 -170v-504h78q46 0 80 -34t34 -80q0 -49 -33.5 -82t-80.5 -33h-328v98 q-56 -59 -133 -91t-156 -32q-160 0 -266.5 98.5t-110.5 254.5zM326 342q0 -70 45 -103.5t116 -33.5q109 0 232 74v241q-38 -7 -128.5 -20t-139.5 -23q-125 -24 -125 -135zM428 1151l176 307h211l-231 -307h-156z" />
<glyph unicode="&#xe2;" horiz-adv-x="1243" d="M63 328q-3 141 87.5 235.5t222.5 112.5l352 51q-3 37 -31 65.5t-67.5 44t-77.5 23.5t-68 8q-70 0 -147.5 -17t-136.5 -46h-29v237q190 54 317 54q97 0 181.5 -19.5t156.5 -60t114 -113.5t42 -170v-504h78q46 0 80 -34t34 -80q0 -49 -33.5 -82t-80.5 -33h-328v98 q-56 -59 -133 -91t-156 -32q-160 0 -266.5 98.5t-110.5 254.5zM293 1153l180 307h205l178 -307h-158l-125 166l-122 -166h-158zM326 342q0 -70 45 -103.5t116 -33.5q109 0 232 74v241q-38 -7 -128.5 -20t-139.5 -23q-125 -24 -125 -135z" />
<glyph unicode="&#xe3;" horiz-adv-x="1263" d="M84 328q-2 95 41.5 171.5t113 120.5t154.5 56l352 51q-4 48 -51 82t-98 46.5t-94 12.5q-70 0 -148 -17t-137 -46h-29v237q190 54 318 54q77 0 146 -11.5t133.5 -38.5t111 -68t74.5 -104t28 -141v-504h78q46 0 80.5 -34t34.5 -80q0 -49 -34 -82t-81 -33h-327v98 q-56 -59 -133 -91t-156 -32q-160 0 -266.5 98.5t-110.5 254.5zM229 1270q93 159 242 162q77 0 158 -43q5 -3 17 -12t17.5 -13t16 -10.5t18.5 -9t19.5 -5t23.5 -2.5q36 0 56 19t41 59l133 -72q-43 -79 -99 -120t-141 -41q-71 0 -147 37q-6 4 -28 18t-31 19t-27 10.5t-35 5.5 q-25 0 -44.5 -11.5t-29 -23.5t-27.5 -39zM346 342q0 -70 45.5 -103.5t116.5 -33.5q108 0 231 74v241q-38 -7 -128.5 -20t-139.5 -23q-125 -24 -125 -135z" />
<glyph unicode="&#xe4;" horiz-adv-x="1153" d="M84 328q-2 95 41.5 171.5t113 120.5t154.5 56l352 51q-4 48 -51 82t-98 46.5t-94 12.5q-70 0 -148 -17t-137 -46h-29v237q190 54 318 54q77 0 145.5 -11.5t132 -38.5t109.5 -68t75 -103.5t31 -141.5v-733h-249v98q-56 -59 -133 -91t-156 -32q-160 0 -266.5 98.5 t-110.5 254.5zM287 1192v225h221v-225h-221zM346 342q0 -70 45.5 -103.5t116.5 -33.5q108 0 231 74v241q-38 -7 -128.5 -20t-139.5 -23q-125 -24 -125 -135zM639 1192v225h225v-225h-225z" />
<glyph unicode="&#xe5;" horiz-adv-x="1263" d="M84 328q-2 95 41.5 171.5t113 120.5t154.5 56l352 51q-4 48 -51 82t-98 46.5t-94 12.5q-70 0 -148 -17t-137 -46h-29v237q190 54 318 54q77 0 146 -11.5t133.5 -38.5t111 -68t74.5 -104t28 -141v-504h78q46 0 80.5 -34t34.5 -80q0 -49 -34 -82t-81 -33h-327v98 q-56 -59 -133 -91t-156 -32q-160 0 -266.5 98.5t-110.5 254.5zM322 1307q0 83 56.5 139.5t139.5 56.5q82 0 140.5 -56.5t58.5 -139.5q0 -81 -58.5 -138t-140.5 -57q-83 0 -139.5 56.5t-56.5 138.5zM346 342q0 -70 45.5 -103.5t116.5 -33.5q108 0 231 74v241 q-38 -7 -128.5 -20t-139.5 -23q-125 -24 -125 -135zM432 1307q0 -36 25 -61t61 -25q37 0 61.5 24.5t24.5 61.5q0 36 -25 61t-61 25q-35 0 -60.5 -25.5t-25.5 -60.5z" />
<glyph unicode="&#xe6;" horiz-adv-x="1734" d="M63 328q-3 141 87.5 235.5t222.5 112.5l352 51q-3 37 -31 65.5t-67.5 44t-77.5 23.5t-68 8q-70 0 -147.5 -17t-136.5 -46h-29v237q190 54 317 54q250 0 375 -138q114 138 311 138q148 0 259 -69t167 -202q36 -90 47 -183t7 -208h-703q13 -81 65 -136.5t120 -78t147 -20.5 q176 4 283 67h32v-243q-154 -46 -335 -46q-244 0 -408 148q-76 -61 -187 -105t-225 -45q-160 -2 -266.5 97.5t-110.5 255.5zM326 342q0 -70 45 -103.5t116 -33.5q109 0 232 74q-46 100 -49 233q-13 -2 -94 -14.5t-125 -20.5q-125 -24 -125 -135zM950 649h436 q-9 104 -61.5 162t-148.5 59q-98 0 -157.5 -62t-68.5 -159z" />
<glyph unicode="&#xe7;" horiz-adv-x="1005" d="M92 537q0 160 63 286.5t182 199.5t275 73q152 0 330 -72v-291q0 -47 -34.5 -82t-80.5 -35q-49 0 -81.5 34.5t-32.5 82.5v127q-29 4 -84 4q-72 0 -125 -24.5t-84 -69.5t-45.5 -103t-14.5 -132q0 -90 29.5 -163t90.5 -118t145 -45q50 0 100 6t100.5 20t87.5 35h31v-221 q-109 -53 -228 -67l-7 -41q211 -33 221 -201q0 -74 -37.5 -128t-94.5 -79t-126 -25q-126 0 -244 80l90 121q73 -51 150 -51q102 0 102 78q0 19 -11.5 36t-30.5 28t-43 20t-49.5 13t-49.5 6t-43 -1l25 142q-135 13 -243.5 88t-170.5 198t-62 271z" />
<glyph unicode="&#xe8;" horiz-adv-x="1157" d="M92 530q7 225 119 381q69 90 168 137.5t215 47.5q148 0 259 -69t167 -202q36 -90 46.5 -182.5t6.5 -208.5h-702q13 -81 64.5 -136.5t119.5 -78t147 -20.5q176 4 283 67h33v-243q-154 -46 -336 -46q-267 0 -426 144q-164 149 -164 409zM352 1458h207l178 -307h-157z M373 649h436q-9 104 -62 162t-149 59q-97 0 -156.5 -62t-68.5 -159z" />
<glyph unicode="&#xe9;" horiz-adv-x="1157" d="M92 530q7 225 119 381q69 90 168 137.5t215 47.5q148 0 259 -69t167 -202q36 -90 46.5 -182.5t6.5 -208.5h-702q13 -81 64.5 -136.5t119.5 -78t147 -20.5q176 4 283 67h33v-243q-154 -46 -336 -46q-267 0 -426 144q-164 149 -164 409zM373 649h436q-9 104 -62 162 t-149 59q-97 0 -156.5 -62t-68.5 -159zM444 1151l177 307h210l-231 -307h-156z" />
<glyph unicode="&#xea;" horiz-adv-x="1157" d="M92 530q7 225 119 381q69 90 168 137.5t215 47.5q148 0 259 -69t167 -202q36 -90 46.5 -182.5t6.5 -208.5h-702q13 -81 64.5 -136.5t119.5 -78t147 -20.5q176 4 283 67h33v-243q-154 -46 -336 -46q-267 0 -426 144q-164 149 -164 409zM332 1153l180 307h205l178 -307 h-158l-125 166l-123 -166h-157zM373 649h436q-9 104 -62 162t-149 59q-97 0 -156.5 -62t-68.5 -159z" />
<glyph unicode="&#xeb;" horiz-adv-x="1157" d="M92 530q7 225 119 381q69 90 168 137.5t215 47.5q148 0 259 -69t167 -202q36 -90 46.5 -182.5t6.5 -208.5h-702q13 -81 64.5 -136.5t119.5 -78t147 -20.5q176 4 283 67h33v-243q-154 -46 -336 -46q-267 0 -426 144q-164 149 -164 409zM324 1192v225h221v-225h-221z M373 649h436q-9 104 -62 162t-149 59q-97 0 -156.5 -62t-68.5 -159zM676 1192v225h225v-225h-225z" />
<glyph unicode="&#xec;" horiz-adv-x="806" d="M82 115q0 46 35 80t84 34h78v611h-78q-50 0 -84.5 34.5t-34.5 83.5q0 46 35 80.5t84 34.5h338v-844h77q49 0 84 -34t35 -80t-35 -80.5t-84 -34.5h-415q-49 0 -84 34.5t-35 80.5zM150 1458h206l179 -307h-158z" />
<glyph unicode="&#xed;" horiz-adv-x="806" d="M82 115q0 46 35 80t84 34h78v611h-78q-50 0 -84.5 34.5t-34.5 83.5q0 46 35 80.5t84 34.5h338v-844h77q49 0 84 -34t35 -80t-35 -80.5t-84 -34.5h-415q-49 0 -84 34.5t-35 80.5zM209 1151l176 307h211l-231 -307h-156z" />
<glyph unicode="&#xee;" horiz-adv-x="806" d="M82 115q0 46 35 80t84 34h78v611h-78q-50 0 -84.5 34.5t-34.5 83.5q0 46 35 80.5t84 34.5h338v-844h77q49 0 84 -34t35 -80t-35 -80.5t-84 -34.5h-415q-49 0 -84 34.5t-35 80.5zM121 1153l180 307h205l178 -307h-158l-125 166l-122 -166h-158z" />
<glyph unicode="&#xef;" horiz-adv-x="806" d="M82 115q0 46 35 80t84 34h78v611h-78q-50 0 -84.5 34.5t-34.5 83.5q0 46 35 80.5t84 34.5h338v-844h77q49 0 84 -34t35 -80t-35 -80.5t-84 -34.5h-415q-49 0 -84 34.5t-35 80.5zM115 1192v225h221v-225h-221zM467 1192v225h225v-225h-225z" />
<glyph unicode="&#xf0;" horiz-adv-x="1241" d="M92 524q0 219 115 375q67 79 161.5 127t206.5 57q116 0 160 -41q-63 97 -176 189l-299 -109l-49 135l213 78q-172 113 -313 162h434q54 -31 110 -74l213 76l54 -137l-140 -51q162 -154 260 -361.5t95 -431.5q0 -105 -37 -201.5t-103 -171t-165 -119t-214 -44.5 q-145 0 -263 63t-185 180q-78 135 -78 299zM350 526q0 -126 72.5 -217.5t198.5 -91.5q122 0 191 95.5t69 226.5q0 84 -27.5 154t-90 117.5t-151.5 47.5q-86 0 -147 -49t-88 -122t-27 -161z" />
<glyph unicode="&#xf1;" horiz-adv-x="1486" d="M82 119q0 46 35 80t84 34h73v611h-73q-49 0 -83 34t-34 80t34 80.5t83 34.5h325v-69q184 92 314 92q170 0 276.5 -110.5t106.5 -289.5v-463h77q46 0 80.5 -34t34.5 -80q0 -49 -34.5 -84t-80.5 -35h-337v670q2 82 -39 134t-123 52q-63 0 -136.5 -25t-129.5 -63v-535h75 q49 0 82 -33.5t33 -80.5q0 -50 -33 -84.5t-82 -34.5h-409q-49 0 -84 35t-35 84zM373 1270q93 159 241 162q77 0 158 -43q4 -3 16.5 -12.5t17.5 -12.5t16.5 -10t19.5 -9.5t19.5 -5t23.5 -2.5q25 0 44 12t28.5 25.5t23.5 40.5l133 -72q-43 -79 -99 -120t-141 -41 q-71 0 -147 37q-6 4 -28 18t-31 19t-27 10.5t-35 5.5q-25 0 -44.5 -12t-28.5 -23t-27 -39z" />
<glyph unicode="&#xf2;" horiz-adv-x="1208" d="M92 537q0 254 142 406.5t372 152.5q229 0 369.5 -152.5t140.5 -406.5t-140 -407t-370 -153t-372 153t-142 407zM360 537q0 -150 67 -239t177 -89q111 0 177.5 89t66.5 239t-67 238.5t-177 88.5t-177 -88.5t-67 -238.5zM412 1458h206l179 -307h-158z" />
<glyph unicode="&#xf3;" horiz-adv-x="1208" d="M92 537q0 254 142 406.5t372 152.5q229 0 369.5 -152.5t140.5 -406.5t-140 -407t-370 -153t-372 153t-142 407zM360 537q0 -150 67 -239t177 -89q111 0 177.5 89t66.5 239t-67 238.5t-177 88.5t-177 -88.5t-67 -238.5zM457 1151l176 307h211l-232 -307h-155z" />
<glyph unicode="&#xf4;" horiz-adv-x="1208" d="M92 537q0 254 142 406.5t372 152.5q229 0 369.5 -152.5t140.5 -406.5t-140 -407t-370 -153t-372 153t-142 407zM322 1153l180 307h205l178 -307h-158l-125 166l-123 -166h-157zM360 537q0 -150 67 -239t177 -89q111 0 177.5 89t66.5 239t-67 238.5t-177 88.5t-177 -88.5 t-67 -238.5z" />
<glyph unicode="&#xf5;" horiz-adv-x="1208" d="M92 537q0 254 142 406.5t372 152.5q229 0 369.5 -152.5t140.5 -406.5t-140 -407t-370 -153t-372 153t-142 407zM233 1270q93 159 242 162q77 0 158 -43q5 -3 17 -12t17.5 -13t16 -10.5t18.5 -9t19.5 -5t23.5 -2.5q36 0 56 19t41 59l133 -72q-43 -79 -99 -120t-141 -41 q-71 0 -147 37q-6 4 -28 18t-31 19t-27 10.5t-35 5.5q-25 0 -44.5 -12t-28.5 -23t-27 -39zM360 537q0 -150 67 -239t177 -89q111 0 177.5 89t66.5 239t-67 238.5t-177 88.5t-177 -88.5t-67 -238.5z" />
<glyph unicode="&#xf6;" horiz-adv-x="1208" d="M92 537q0 254 142 406.5t372 152.5q229 0 369.5 -152.5t140.5 -406.5t-140 -407t-370 -153t-372 153t-142 407zM315 1192v225h222v-225h-222zM360 537q0 -150 67 -239t177 -89q111 0 177.5 89t66.5 239t-67 238.5t-177 88.5t-177 -88.5t-67 -238.5zM668 1192v225h225 v-225h-225z" />
<glyph unicode="&#xf7;" horiz-adv-x="1222" d="M133 444v183h957v-183h-957zM475 0v274h273v-274h-273zM475 803v270h273v-270h-273z" />
<glyph unicode="&#xf8;" horiz-adv-x="1273" d="M92 96l123 123q-78 137 -78 318q0 254 142 406.5t372 152.5q193 0 328 -113l100 100l103 -104l-107 -107q86 -141 86 -335q0 -254 -140 -407t-370 -153q-207 0 -344 125l-110 -110zM406 537q0 -63 12 -115l381 381q-64 61 -150 61q-110 0 -176.5 -88.5t-66.5 -238.5z M487 283q65 -74 162 -74q111 0 177.5 89t66.5 239q0 70 -19 135z" />
<glyph unicode="&#xf9;" horiz-adv-x="1484" d="M72 954q0 49 34 84t80 35h338v-670q-2 -82 39 -134t123 -52q63 0 136.5 25t129.5 63v535h-75q-49 0 -82 33.5t-33 80.5q0 50 33 84.5t82 34.5h335v-844h74q49 0 83 -34t34 -80t-34 -80.5t-83 -34.5h-325v70q-186 -93 -314 -93q-170 0 -276.5 110.5t-106.5 289.5v463h-78 q-46 0 -80 34t-34 80zM473 1458h207l178 -307h-158z" />
<glyph unicode="&#xfa;" horiz-adv-x="1484" d="M72 954q0 49 34 84t80 35h338v-670q-2 -82 39 -134t123 -52q63 0 136.5 25t129.5 63v535h-75q-49 0 -82 33.5t-33 80.5q0 50 33 84.5t82 34.5h335v-844h74q49 0 83 -34t34 -80t-34 -80.5t-83 -34.5h-325v70q-186 -93 -314 -93q-170 0 -276.5 110.5t-106.5 289.5v463h-78 q-46 0 -80 34t-34 80zM549 1151l176 307h211l-231 -307h-156z" />
<glyph unicode="&#xfb;" horiz-adv-x="1484" d="M72 954q0 49 34 84t80 35h338v-670q-2 -82 39 -134t123 -52q63 0 136.5 25t129.5 63v535h-75q-49 0 -82 33.5t-33 80.5q0 50 33 84.5t82 34.5h335v-844h74q49 0 83 -34t34 -80t-34 -80.5t-83 -34.5h-325v70q-186 -93 -314 -93q-170 0 -276.5 110.5t-106.5 289.5v463h-78 q-46 0 -80 34t-34 80zM461 1153l180 307h205l178 -307h-158l-125 166l-123 -166h-157z" />
<glyph unicode="&#xfc;" horiz-adv-x="1484" d="M72 954q0 49 34 84t80 35h338v-670q-2 -82 39 -134t123 -52q63 0 136.5 25t129.5 63v535h-75q-49 0 -82 33.5t-33 80.5q0 50 33 84.5t82 34.5h335v-844h74q49 0 83 -34t34 -80t-34 -80.5t-83 -34.5h-325v70q-186 -93 -314 -93q-170 0 -276.5 110.5t-106.5 289.5v463h-78 q-46 0 -80 34t-34 80zM453 1192v225h221v-225h-221zM805 1192v225h225v-225h-225z" />
<glyph unicode="&#xfd;" horiz-adv-x="1179" d="M-61 954q0 49 34 84t80 35h365q47 0 80.5 -35t33.5 -84q0 -47 -33.5 -80.5t-80.5 -33.5h-10l206 -488l177 488h-21q-49 0 -82 33t-33 81q0 50 33 84.5t82 34.5h336q46 0 80.5 -35t34.5 -84q0 -47 -34.5 -80.5t-80.5 -33.5h-72l-389 -1071q-58 -149 -166.5 -205 t-302.5 -56h-47v226h88t69.5 4.5t53.5 12.5t41.5 24.5t33 40t27.5 59.5l50 135l-365 830h-74q-46 0 -80 33.5t-34 80.5zM436 1151l176 307h211l-231 -307h-156z" />
<glyph unicode="&#xfe;" horiz-adv-x="1312" d="M82 -373q0 44 34.5 78.5t80.5 34.5h77v1532h-77q-46 0 -80.5 34t-34.5 78q0 49 34.5 84t80.5 35h413q46 0 80.5 -35t34.5 -84q0 -44 -34.5 -78t-80.5 -34h-75v-238q94 56 219 56q106 -5 199.5 -48t156.5 -122q111 -137 111 -369q0 -258 -111 -401q-63 -78 -156.5 -120.5 t-199.5 -47.5q-130 0 -219 53v-295h75q46 0 80.5 -34.5t34.5 -78.5q0 -49 -34.5 -84t-80.5 -35h-413q-46 0 -80.5 35t-34.5 84zM535 246q109 -25 188 -25q132 0 195 94q47 78 47 222q0 141 -47 217q-65 94 -195 94q-93 0 -188 -31v-571z" />
<glyph unicode="&#xff;" horiz-adv-x="1179" d="M-61 954q0 49 34 84t80 35h365q47 0 80.5 -35t33.5 -84q0 -47 -33.5 -80.5t-80.5 -33.5h-10l206 -488l177 488h-21q-49 0 -82 33t-33 81q0 50 33 84.5t82 34.5h336q46 0 80.5 -35t34.5 -84q0 -47 -34.5 -80.5t-80.5 -33.5h-72l-389 -1071q-58 -149 -166.5 -205 t-302.5 -56h-47v226h88t69.5 4.5t53.5 12.5t41.5 24.5t33 40t27.5 59.5l50 135l-365 830h-74q-46 0 -80 33.5t-34 80.5zM301 1192v225h221v-225h-221zM653 1192v225h226v-225h-226z" />
<glyph unicode="&#x152;" horiz-adv-x="2029" d="M104 709q-3 310 156 520q81 106 207.5 166.5t253.5 60.5q116 0 223.5 -42.5t175.5 -125.5q41 78 100 112t166 34h623v-330q0 -54 -37.5 -90.5t-91.5 -36.5t-90.5 36.5t-36.5 90.5v74h-342q-27 0 -46 -19t-19 -45v-240h475v-239h-475v-381h407v125q0 54 36.5 90.5 t90.5 36.5t91.5 -36.5t37.5 -90.5v-379h-936v104q-68 -63 -160.5 -95t-191.5 -32q-125 2 -240 54t-196 145q-92 106 -137.5 246t-43.5 287zM389 702q0 -68 12.5 -133.5t40 -127.5t66.5 -108.5t97.5 -75t127.5 -28.5q77 3 138 35.5t98 81.5t61 115.5t33.5 131.5t9.5 136 q-4 73 -16 137.5t-37.5 128.5t-63 109.5t-96.5 73t-133 26.5q-75 0 -135 -33t-97 -85t-61.5 -120t-34.5 -133.5t-10 -130.5z" />
<glyph unicode="&#x153;" horiz-adv-x="1898" d="M92 537q0 254 142 406.5t372 152.5q112 0 210 -45.5t165 -130.5q131 176 354 176q148 0 259 -69t167 -202q36 -90 47 -183t7 -208h-703q13 -81 65 -136.5t120 -78t147 -20.5q175 4 282 67h33v-243q-154 -46 -336 -46q-276 0 -440 177q-125 -177 -377 -177 q-230 0 -372 153t-142 407zM360 537q0 -150 67 -239t177 -89q111 0 177.5 89t66.5 239t-67 238.5t-177 88.5t-177 -88.5t-67 -238.5zM1114 649h436q-9 104 -62 162t-149 59q-97 0 -156.5 -62t-68.5 -159z" />
<glyph unicode="&#x178;" horiz-adv-x="1335" d="M-41 1307q0 53 35.5 89.5t89.5 37.5h408q52 0 89 -38t37 -91t-35.5 -90t-88.5 -37l180 -369l182 369h-14q-52 0 -88.5 37t-36.5 90t37.5 91t89.5 38h407q54 -1 89.5 -37.5t35.5 -89.5t-37.5 -91t-89.5 -38h-119l-329 -629v-295h86q52 0 89.5 -37t37.5 -90t-37.5 -90 t-89.5 -37h-449q-53 0 -90 36.5t-37 90.5t37 90.5t90 36.5h86v295l-331 629h-107q-52 0 -89.5 38t-37.5 91zM379 1552v226h221v-226h-221zM731 1552v226h225v-226h-225z" />
<glyph unicode="&#x2c6;" horiz-adv-x="747" d="M92 1153l180 307h205l178 -307h-157l-125 166l-123 -166h-158z" />
<glyph unicode="&#x2dc;" horiz-adv-x="925" d="M92 1270q93 159 242 162q77 0 158 -43q5 -3 17 -12t17.5 -13t16 -10.5t18.5 -9t19.5 -5t23.5 -2.5q25 0 44 12t28.5 25.5t23.5 40.5l134 -72q-43 -79 -99 -120t-141 -41q-72 0 -148 37q-7 4 -28 18t-30.5 19t-27 10.5t-34.5 5.5q-25 0 -44.5 -11.5t-29 -23.5t-27.5 -39z " />
<glyph unicode="&#x2000;" horiz-adv-x="932" />
<glyph unicode="&#x2001;" horiz-adv-x="1864" />
<glyph unicode="&#x2002;" horiz-adv-x="932" />
<glyph unicode="&#x2003;" horiz-adv-x="1864" />
<glyph unicode="&#x2004;" horiz-adv-x="621" />
<glyph unicode="&#x2005;" horiz-adv-x="466" />
<glyph unicode="&#x2006;" horiz-adv-x="310" />
<glyph unicode="&#x2007;" horiz-adv-x="310" />
<glyph unicode="&#x2008;" horiz-adv-x="233" />
<glyph unicode="&#x2009;" horiz-adv-x="372" />
<glyph unicode="&#x200a;" horiz-adv-x="103" />
<glyph unicode="&#x2010;" horiz-adv-x="985" d="M133 428v219h719v-219h-719z" />
<glyph unicode="&#x2011;" horiz-adv-x="985" d="M133 428v219h719v-219h-719z" />
<glyph unicode="&#x2012;" horiz-adv-x="985" d="M133 428v219h719v-219h-719z" />
<glyph unicode="&#x2013;" horiz-adv-x="1054" d="M10 440v187h1034v-187h-1034z" />
<glyph unicode="&#x2014;" horiz-adv-x="2013" d="M10 440v187h1993v-187h-1993z" />
<glyph unicode="&#x2018;" horiz-adv-x="677" d="M133 858l252 576h160l-152 -576h-260z" />
<glyph unicode="&#x2019;" horiz-adv-x="677" d="M133 858l152 576h260l-252 -576h-160z" />
<glyph unicode="&#x201a;" horiz-adv-x="677" d="M133 -303l152 575h260l-252 -575h-160z" />
<glyph unicode="&#x201c;" horiz-adv-x="1073" d="M133 858l252 576h160l-152 -576h-260zM528 858l252 576h160l-152 -576h-260z" />
<glyph unicode="&#x201d;" horiz-adv-x="1073" d="M133 858l152 576h260l-252 -576h-160zM528 858l152 576h260l-252 -576h-160z" />
<glyph unicode="&#x201e;" horiz-adv-x="1073" d="M133 -303l152 575h260l-252 -575h-160zM528 -303l152 575h260l-252 -575h-160z" />
<glyph unicode="&#x2022;" horiz-adv-x="655" d="M133 713q0 79 57.5 136.5t137.5 57.5t137 -57.5t57 -136.5q0 -80 -57.5 -137.5t-136.5 -57.5q-80 0 -137.5 58t-57.5 137z" />
<glyph unicode="&#x2026;" horiz-adv-x="1908" d="M195 0v272h274v-272h-274zM817 0v272h275v-272h-275zM1440 0v272h274v-272h-274z" />
<glyph unicode="&#x202f;" horiz-adv-x="372" />
<glyph unicode="&#x2039;" horiz-adv-x="835" d="M133 535l359 487h210l-331 -487l331 -490h-210z" />
<glyph unicode="&#x203a;" horiz-adv-x="835" d="M133 45l332 490l-332 487h211l358 -487l-358 -490h-211z" />
<glyph unicode="&#x205f;" horiz-adv-x="466" />
<glyph unicode="&#x20ac;" horiz-adv-x="1277" d="M82 498l33 157h139q0 107 2 127h-119l31 160h106q34 149 101 252q79 127 199.5 194.5t265.5 67.5q210 0 387 -94v-229q0 -52 -37 -89.5t-90 -37.5q-52 0 -88.5 37.5t-36.5 89.5v61q-58 10 -107 10q-117 0 -195 -74.5t-112 -187.5h586l-33 -160h-577q-7 -78 0 -127h553 l-29 -157h-500q34 -119 113 -194t192 -75q168 0 281 93h45v-265q-160 -80 -326 -80q-150 0 -278 65.5t-205 184.5q-76 116 -109 271h-192z" />
<glyph unicode="&#x2122;" horiz-adv-x="1943" d="M61 1235v197h648v-197q0 -29 -21 -49.5t-49 -20.5t-49 20.5t-21 49.5v45h-106v-543h49q25 0 45.5 -21t20.5 -48t-20.5 -48.5t-45.5 -21.5h-250q-29 0 -49 21t-20 49t20 48.5t49 20.5h45v543h-106v-45q0 -29 -21 -49.5t-49 -20.5t-49 20.5t-21 49.5zM737 668 q0 28 20.5 48.5t49.5 20.5h45l31 594q3 43 30 73.5t70 33.5q41 1 75 -24t48 -62l174 -533l168 533q32 86 113 86q48 0 79.5 -29t32.5 -78l33 -594h49q25 0 45.5 -21t20.5 -48t-20.5 -48.5t-45.5 -21.5h-250q-29 0 -49 21t-20 49t20 48.5t49 20.5h45l-16 420l-180 -559h-154 l-180 547l-23 -408h50q25 0 45 -21t20 -48q0 -28 -20 -49t-45 -21h-240q-29 0 -49.5 21t-20.5 49z" />
<glyph unicode="&#xfb01;" horiz-adv-x="1421" d="M82 119q0 44 34.5 78t80.5 34h77v617v225v31q0 199 90 298t281 99q39 0 92 -9.5t87 -18.5t34 -11v-229h-35q-70 39 -151 39q-58 0 -97.5 -34t-39.5 -99v-66h624v-842h76q46 0 80.5 -34t34.5 -78q0 -49 -34.5 -84t-80.5 -35h-352q-46 0 -80.5 35t-34.5 84q0 44 34.5 78 t80.5 34h16v617h-364v-617h14q46 0 80.5 -34t34.5 -78q0 -49 -34.5 -84t-80.5 -35h-352q-46 0 -80.5 35t-34.5 84zM82 961q0 37 22 66t56 40v-213q-16 6 -30.5 16.5t-25 24.5t-16.5 31t-6 35zM160 848v6q17 -6 35 -6h-35zM160 1067v6h35q-18 0 -35 -6zM905 1178v256h256 v-256h-256z" />
<glyph unicode="&#xfb02;" horiz-adv-x="1374" d="M82 119q0 44 34.5 78t80.5 34h77v617h-79q-45 0 -79 34t-34 79q0 46 34 79t79 33h79v31q0 195 104.5 296t299.5 101q94 0 222 -34.5t206 -86.5v-1046q0 -65 39 -96t102 -31q60 -2 156 47h33v-229q-53 -18 -76 -25.5t-63 -15t-80 -7.5q-187 0 -279 103.5t-92 298.5v854 q-76 42 -174 39q-58 0 -97.5 -34t-39.5 -99v-66h251v-225h-251v-617h75q46 0 80.5 -34t34.5 -78q0 -49 -34.5 -84t-80.5 -35h-413q-46 0 -80.5 35t-34.5 84z" />
</font>
</defs>
</svg>
